<svg width="88" height="88" viewBox="0 0 88 88" fill="none" xmlns="http://www.w3.org/2000/svg">
<g filter="url(#filter0_d)">
<circle cx="44" cy="38" r="36" fill="url(#paint0_linear)"/>
</g>
<path fill-rule="evenodd" clip-rule="evenodd" d="M65.9382 27.2926C66.2894 28.259 65.144 30.4788 62.5019 33.9518C62.1354 34.435 61.639 35.0768 61.0129 35.8771C60.402 36.6472 59.982 37.1908 59.7529 37.5079C59.5238 37.825 59.2909 38.1988 59.0542 38.6291C58.8175 39.0595 58.7259 39.3766 58.7793 39.5804C58.8328 39.7843 58.932 40.0448 59.0771 40.3619C59.2222 40.679 59.4704 41.0036 59.8216 41.3358C60.1729 41.668 60.6081 42.0682 61.1274 42.5363C61.1885 42.5665 61.2267 42.5967 61.242 42.6269C63.3953 44.605 64.8538 46.2736 65.6175 47.6326C65.6633 47.7081 65.7129 47.8025 65.7663 47.9158C65.8198 48.029 65.8733 48.2291 65.9267 48.516C65.9802 48.8029 65.9763 49.0596 65.9152 49.2861C65.8541 49.5126 65.6633 49.7203 65.3426 49.909C65.0218 50.0978 64.5713 50.1921 63.9909 50.1921L58.1264 50.2828C57.7599 50.3583 57.3323 50.3205 56.8436 50.1695C56.3549 50.0185 55.9578 49.8524 55.6523 49.6712L55.1942 49.3994C54.736 49.0823 54.2015 48.5991 53.5906 47.9498C52.9797 47.3004 52.4566 46.7153 52.0213 46.1944C51.5861 45.6734 51.1203 45.2355 50.6239 44.8806C50.1276 44.5258 49.6962 44.4087 49.3296 44.5295C49.2838 44.5446 49.2227 44.5711 49.1464 44.6088C49.07 44.6466 48.9402 44.7561 48.7569 44.9373C48.5736 45.1185 48.4095 45.3412 48.2644 45.6054C48.1193 45.8697 47.9895 46.2623 47.875 46.7833C47.7604 47.3042 47.7108 47.8894 47.726 48.5387C47.726 48.7652 47.6993 48.9728 47.6459 49.1616C47.5924 49.3503 47.5352 49.49 47.4741 49.5806L47.3824 49.6938C47.1075 49.9807 46.7028 50.1468 46.1683 50.1921H43.5338C42.4495 50.2525 41.3346 50.128 40.1892 49.8184C39.0438 49.5089 38.0397 49.1087 37.1768 48.6179C36.3139 48.1272 35.5274 47.6289 34.8172 47.123C34.107 46.6171 33.5687 46.183 33.2022 45.8206L32.6294 45.277C32.4767 45.126 32.2667 44.8995 31.9995 44.5975C31.7322 44.2955 31.1863 43.6084 30.3616 42.5363C29.5369 41.4642 28.7274 40.3241 27.9332 39.1161C27.1391 37.9081 26.2037 36.315 25.127 34.3369C24.0503 32.3587 23.0538 30.3051 22.1374 28.176C22.0458 27.9344 22 27.7305 22 27.5644C22 27.3983 22.0229 27.2775 22.0687 27.202L22.1604 27.0661C22.3895 26.7792 22.8247 26.6357 23.4661 26.6357L29.743 26.5904C29.9263 26.6206 30.1019 26.6697 30.2699 26.7377C30.4379 26.8056 30.5601 26.8698 30.6364 26.9302L30.751 26.9981C30.9953 27.1642 31.1786 27.4058 31.3008 27.723C31.6062 28.478 31.9575 29.2594 32.3546 30.0673C32.7516 30.8751 33.0647 31.4905 33.2938 31.9133L33.6603 32.5701C34.1032 33.4762 34.5309 34.2614 34.9432 34.9258C35.3556 35.5902 35.7259 36.1074 36.0543 36.4773C36.3826 36.8473 36.6995 37.138 37.005 37.3494C37.3104 37.5608 37.57 37.6665 37.7838 37.6665C37.9976 37.6665 38.2038 37.6287 38.4023 37.5532C38.4329 37.5381 38.4711 37.5004 38.5169 37.44C38.5627 37.3796 38.6544 37.2135 38.7918 36.9417C38.9293 36.6699 39.0324 36.315 39.1011 35.8771C39.1698 35.4392 39.2423 34.8276 39.3187 34.0424C39.3951 33.2572 39.3951 32.3134 39.3187 31.2111C39.2882 30.6071 39.2194 30.056 39.1125 29.5577C39.0056 29.0593 38.8987 28.712 38.7918 28.5157L38.6544 28.2439C38.2726 27.7305 37.6235 27.4059 36.7071 27.27C36.5086 27.2398 36.5468 27.0586 36.8217 26.7263C37.066 26.4394 37.3562 26.2129 37.6922 26.0468C38.5016 25.6542 40.3267 25.473 43.1673 25.5032C44.4196 25.5183 45.4505 25.6165 46.2599 25.7977C46.5654 25.8732 46.8212 25.9751 47.0274 26.1035C47.2335 26.2318 47.39 26.413 47.497 26.6471C47.6039 26.8811 47.6841 27.1227 47.7375 27.3719C47.791 27.621 47.8177 27.9646 47.8177 28.4025C47.8177 28.8404 47.8101 29.2556 47.7948 29.6483C47.7795 30.0409 47.7604 30.5731 47.7375 31.2451C47.7146 31.9171 47.7031 32.5399 47.7031 33.1138C47.7031 33.2799 47.6955 33.597 47.6802 34.0651C47.6649 34.5332 47.6611 34.8956 47.6688 35.1523C47.6764 35.409 47.7031 35.7148 47.749 36.0696C47.7948 36.4245 47.8826 36.7189 48.0124 36.953C48.1422 37.1871 48.314 37.372 48.5278 37.5079C48.65 37.5381 48.7798 37.5683 48.9173 37.5985C49.0547 37.6287 49.2533 37.5457 49.5129 37.3494C49.7725 37.1531 50.0627 36.8926 50.3834 36.5679C50.7041 36.2433 51.1012 35.7374 51.5746 35.0504C52.0481 34.3633 52.5673 33.5517 53.1324 32.6155C54.0488 31.045 54.8658 29.3463 55.5836 27.5191C55.6447 27.3681 55.7211 27.236 55.8127 27.1227C55.9043 27.0095 55.9883 26.9302 56.0647 26.8849L56.1563 26.8169C56.1868 26.8018 56.225 26.783 56.2708 26.7603C56.3167 26.7377 56.416 26.715 56.5687 26.6924C56.7214 26.6697 56.8741 26.6659 57.0268 26.681L63.6244 26.6357C64.22 26.5602 64.7088 26.5791 65.0906 26.6924C65.4724 26.8056 65.7091 26.9302 65.8007 27.0661L65.9382 27.2926Z" fill="white"/>
<defs>
<filter id="filter0_d" x="0" y="0" width="88" height="88" filterUnits="userSpaceOnUse" color-interpolation-filters="sRGB">
<feFlood flood-opacity="0" result="BackgroundImageFix"/>
<feColorMatrix in="SourceAlpha" type="matrix" values="0 0 0 0 0 0 0 0 0 0 0 0 0 0 0 0 0 0 127 0"/>
<feOffset dy="6"/>
<feGaussianBlur stdDeviation="4"/>
<feColorMatrix type="matrix" values="0 0 0 0 0.345098 0 0 0 0 0.619608 0 0 0 0 0.827451 0 0 0 0.3 0"/>
<feBlend mode="normal" in2="BackgroundImageFix" result="effect1_dropShadow"/>
<feBlend mode="normal" in="SourceGraphic" in2="effect1_dropShadow" result="shape"/>
</filter>
<linearGradient id="paint0_linear" x1="32.3286" y1="69.2814" x2="30.5093" y2="2.31142" gradientUnits="userSpaceOnUse">
<stop stop-color="#6297E2"/>
<stop offset="1" stop-color="#5EC5DC"/>
</linearGradient>
</defs>
</svg>
