<svg width="44" height="44" viewBox="0 0 44 44" fill="none" xmlns="http://www.w3.org/2000/svg">
<path fill-rule="evenodd" clip-rule="evenodd" d="M31.8996 14.9292C32.6806 14.1481 32.6806 12.8818 31.8996 12.1007C31.1185 11.3197 29.8522 11.3197 29.0711 12.1007L22 19.1719L14.9289 12.1007C14.1478 11.3197 12.8815 11.3197 12.1004 12.1007C11.3194 12.8818 11.3194 14.1481 12.1004 14.9292L19.1716 22.0003L12.1006 29.0713C11.3195 29.8523 11.3195 31.1187 12.1006 31.8997C12.8816 32.6808 14.148 32.6808 14.929 31.8997L22 24.8287L29.071 31.8997C29.852 32.6808 31.1184 32.6808 31.8994 31.8997C32.6805 31.1187 32.6805 29.8523 31.8994 29.0713L24.8284 22.0003L31.8996 14.9292Z" fill="black" fill-opacity="0.3"/>
</svg>
