<svg width="88" height="88" viewBox="0 0 88 88" fill="none" xmlns="http://www.w3.org/2000/svg">
<g filter="url(#filter0_d)">
<circle cx="44" cy="38" r="36" fill="url(#paint0_linear)"/>
</g>
<path fill-rule="evenodd" clip-rule="evenodd" d="M50.6857 19H50L49.866 19.3797C49.5233 20.3507 48.6055 21 47.5759 21H40.4241C39.3945 21 38.4767 20.3507 38.134 19.3797L38 19H37.3143C35.4839 19 34 20.4839 34 22.3143V53.6857C34 55.5161 35.4839 57 37.3143 57H50.6857C52.5161 57 54 55.5161 54 53.6857V22.3143C54 20.4839 52.5161 19 50.6857 19ZM37.3143 16C33.827 16 31 18.827 31 22.3143V53.6857C31 57.173 33.827 60 37.3143 60H50.6857C54.173 60 57 57.173 57 53.6857V22.3143C57 18.827 54.173 16 50.6857 16H37.3143ZM44.5693 29.8724C44.234 29.6102 43.7633 29.6102 43.428 29.8724L37.1788 34.7593C36.8318 35.0306 37.0237 35.5873 37.4641 35.5873H39.9395V38.4515C39.9395 38.9631 40.3542 39.3778 40.8658 39.3778H47.1306C47.6422 39.3778 48.0569 38.9631 48.0569 38.4515V35.5873H50.5333C50.9736 35.5873 51.1655 35.0306 50.8186 34.7593L44.5693 29.8724ZM39.9395 41.2548C39.9395 40.7432 40.3542 40.3285 40.8658 40.3285H47.1306C47.6422 40.3285 48.0569 40.7432 48.0569 41.2548V41.7719C48.0569 42.2835 47.6422 42.6982 47.1306 42.6982H40.8658C40.3542 42.6982 39.9395 42.2835 39.9395 41.7719V41.2548ZM40.8658 43.6449C40.3542 43.6449 39.9395 44.0597 39.9395 44.5712V44.6143C39.9395 45.1259 40.3542 45.5407 40.8658 45.5407H47.1306C47.6422 45.5407 48.0569 45.1259 48.0569 44.6143V44.5712C48.0569 44.0597 47.6422 43.6449 47.1306 43.6449H40.8658ZM39.9395 47.1996C39.9395 46.807 40.2577 46.4887 40.6504 46.4887H47.346C47.7387 46.4887 48.0569 46.807 48.0569 47.1996C48.0569 47.5922 47.7387 47.9105 47.346 47.9105H40.6504C40.2577 47.9105 39.9395 47.5922 39.9395 47.1996Z" fill="white"/>
<defs>
<filter id="filter0_d" x="0" y="0" width="88" height="88" filterUnits="userSpaceOnUse" color-interpolation-filters="sRGB">
<feFlood flood-opacity="0" result="BackgroundImageFix"/>
<feColorMatrix in="SourceAlpha" type="matrix" values="0 0 0 0 0 0 0 0 0 0 0 0 0 0 0 0 0 0 127 0"/>
<feOffset dy="6"/>
<feGaussianBlur stdDeviation="4"/>
<feColorMatrix type="matrix" values="0 0 0 0 0.841667 0 0 0 0 0.530728 0 0 0 0 0.417326 0 0 0 0.4 0"/>
<feBlend mode="normal" in2="BackgroundImageFix" result="effect1_dropShadow"/>
<feBlend mode="normal" in="SourceGraphic" in2="effect1_dropShadow" result="shape"/>
</filter>
<linearGradient id="paint0_linear" x1="30.1102" y1="2" x2="64.625" y2="67.1618" gradientUnits="userSpaceOnUse">
<stop stop-color="#FAAC80"/>
<stop offset="1" stop-color="#E84E68"/>
</linearGradient>
</defs>
</svg>
