<svg width="140" height="140" viewBox="0 0 140 140" fill="none" xmlns="http://www.w3.org/2000/svg">
<path d="M70 120C97.6142 120 120 97.6142 120 70C120 42.3858 97.6142 20 70 20C42.3858 20 20 42.3858 20 70C20 97.6142 42.3858 120 70 120Z" fill="#9166ED"/>
<path fill-rule="evenodd" clip-rule="evenodd" d="M80.3507 70.2379L96 58.1458V83.6516L80.3507 70.2379ZM77.1183 72.7356L75.8351 73.7271C75.7518 73.7915 75.6651 73.8593 75.5751 73.9296C74.6683 74.6384 73.4242 75.6108 71.9417 76.0102C70.6699 76.3528 69.3301 76.3528 68.0583 76.0102C66.5758 75.6108 65.3317 74.6384 64.4249 73.9296C64.3349 73.8593 64.2482 73.7915 64.1649 73.7271L62.8033 72.675L45.7924 87H93.7602L77.1183 72.7356ZM44 83.2801L59.5649 70.1727L44 58.1458V83.2801ZM94.8225 54.0006L94.4567 54.0004L70.0001 54H69.9999L45.5433 54.0004L45.1775 54.0006L64.2342 68.7257L66.6106 70.562C67.8235 71.4991 68.4299 71.9676 69.0988 72.1479C69.6891 72.3069 70.3109 72.3069 70.9012 72.1479C71.5701 71.9676 72.1766 71.4991 73.3894 70.562L75.7658 68.7257L94.8225 54.0006ZM40 85.4567V55.6443V55.5437C40 53.6034 40 52.6333 40.3776 51.8922C40.7098 51.2403 41.2398 50.7103 41.8916 50.3781C42.6327 50.0005 43.6029 50.0005 45.5432 50.0004L70 50L94.4568 50.0004C96.3971 50.0005 97.3673 50.0005 98.1083 50.3781C98.7602 50.7103 99.2902 51.2403 99.6224 51.8922C100 52.6333 100 53.6034 100 55.5437V55.6443V85.4567C100 87.397 100 88.3672 99.6224 89.1083C99.2902 89.7602 98.7602 90.2902 98.1083 90.6224C97.3672 91 96.397 91 94.4567 91H45.5433C43.603 91 42.6328 91 41.8917 90.6224L41.8841 90.6185C41.2356 90.2861 40.7085 89.7577 40.3776 89.1083C40 88.3672 40 87.397 40 85.4567Z" fill="white"/>
</svg>
