<!-- <svg width="104" height="104" viewBox="0 0 104 104" fill="none" xmlns="http://www.w3.org/2000/svg">
<g filter="url(#filter0_d)">
<path d="M20 40C20 22.3269 34.3269 8 52 8C69.6731 8 84 22.3269 84 40C84 57.6731 69.6731 72 52 72C34.3269 72 20 57.6731 20 40Z" fill="white"/>
<path fill-rule="evenodd" clip-rule="evenodd" d="M68.8292 37.6197C69.7246 38.2664 70.9748 38.0648 71.6215 37.1693C72.2682 36.2738 72.0666 35.0237 71.1711 34.377L53.1711 21.377L52.0001 20.5312L50.8292 21.377L32.8292 34.377C31.9337 35.0237 31.7321 36.2738 32.3788 37.1693C33.0255 38.0648 34.2757 38.2664 35.1711 37.6197L52.0001 25.4654L68.8292 37.6197ZM41.0001 40.9983C41.0001 39.8937 40.1047 38.9983 39.0001 38.9983C37.8956 38.9983 37.0001 39.8937 37.0001 40.9983V50.9983C37.0001 55.4166 40.5819 58.9983 45.0001 58.9983H59.0001C63.4184 58.9983 67.0001 55.4166 67.0001 50.9983V40.9983C67.0001 39.8937 66.1047 38.9983 65.0001 38.9983C63.8956 38.9983 63.0001 39.8937 63.0001 40.9983V50.9983C63.0001 53.2075 61.2093 54.9983 59.0001 54.9983H45.0001C42.791 54.9983 41.0001 53.2075 41.0001 50.9983V40.9983Z" fill="black" fill-opacity="0.3"/>
</g>
<defs>
<filter id="filter0_d" x="0" y="0" width="104" height="104" filterUnits="userSpaceOnUse" color-interpolation-filters="sRGB">
<feFlood flood-opacity="0" result="BackgroundImageFix"/>
<feColorMatrix in="SourceAlpha" type="matrix" values="0 0 0 0 0 0 0 0 0 0 0 0 0 0 0 0 0 0 127 0"/>
<feOffset dy="12"/>
<feGaussianBlur stdDeviation="10"/>
<feColorMatrix type="matrix" values="0 0 0 0 0 0 0 0 0 0 0 0 0 0 0 0 0 0 0.2 0"/>
<feBlend mode="normal" in2="BackgroundImageFix" result="effect1_dropShadow"/>
<feBlend mode="normal" in="SourceGraphic" in2="effect1_dropShadow" result="shape"/>
</filter>
</defs>
</svg> -->


<svg width="44" height="44" viewBox="0 0 44 44" fill="none" xmlns="http://www.w3.org/2000/svg">
<path fill-rule="evenodd" clip-rule="evenodd" d="M38.8292 19.6197C39.7246 20.2664 40.9748 20.0648 41.6215 19.1693C42.2682 18.2738 42.0666 17.0237 41.1711 16.377L23.1711 3.37696L22.0001 2.53125L20.8292 3.37696L2.82916 16.377C1.93371 17.0237 1.73207 18.2738 2.37879 19.1693C3.0255 20.0648 4.27567 20.2664 5.17113 19.6197L22.0001 7.46538L38.8292 19.6197ZM11.0001 22.9983C11.0001 21.8937 10.1047 20.9983 9.00015 20.9983C7.89558 20.9983 7.00015 21.8937 7.00015 22.9983V32.9983C7.00015 37.4166 10.5819 40.9983 15.0001 40.9983H29.0001C33.4184 40.9983 37.0001 37.4166 37.0001 32.9983V22.9983C37.0001 21.8937 36.1047 20.9983 35.0001 20.9983C33.8956 20.9983 33.0001 21.8937 33.0001 22.9983V32.9983C33.0001 35.2075 31.2093 36.9983 29.0001 36.9983H15.0001C12.791 36.9983 11.0001 35.2075 11.0001 32.9983V22.9983Z" fill="black" fill-opacity="0.3"/>
</svg>
