<svg width="112" height="112" viewBox="0 0 112 112" fill="none" xmlns="http://www.w3.org/2000/svg">
<g filter="url(#filter0_d)">
<circle cx="56" cy="50" r="48" fill="url(#paint0_linear)"/>
</g>
<path fill-rule="evenodd" clip-rule="evenodd" d="M33 31C29.6863 31 27 33.6863 27 37V63C27 66.3137 29.6863 69 33 69H79C82.3137 69 85 66.3137 85 63V37C85 33.6863 82.3137 31 79 31H33ZM31 37C31 35.8954 31.8954 35 33 35H79C80.1046 35 81 35.8954 81 37V42H31V37ZM31 48V63C31 64.1046 31.8954 65 33 65H79C80.1046 65 81 64.1046 81 63V48H31Z" fill="white"/>
<defs>
<filter id="filter0_d" x="0" y="0" width="112" height="112" filterUnits="userSpaceOnUse" color-interpolation-filters="sRGB">
<feFlood flood-opacity="0" result="BackgroundImageFix"/>
<feColorMatrix in="SourceAlpha" type="matrix" values="0 0 0 0 0 0 0 0 0 0 0 0 0 0 0 0 0 0 127 0"/>
<feOffset dy="6"/>
<feGaussianBlur stdDeviation="4"/>
<feColorMatrix type="matrix" values="0 0 0 0 0.678006 0 0 0 0 0.841927 0 0 0 0 0.723226 0 0 0 1 0"/>
<feBlend mode="normal" in2="BackgroundImageFix" result="effect1_dropShadow"/>
<feBlend mode="normal" in="SourceGraphic" in2="effect1_dropShadow" result="shape"/>
</filter>
<linearGradient id="paint0_linear" x1="37.4803" y1="2" x2="83.5" y2="88.8824" gradientUnits="userSpaceOnUse">
<stop stop-color="#87DC9F"/>
<stop offset="1" stop-color="#36B049"/>
</linearGradient>
</defs>
</svg>
