<svg width="88" height="88" viewBox="0 0 88 88" fill="none" xmlns="http://www.w3.org/2000/svg">
<g filter="url(#filter0_d)">
<circle cx="44" cy="38" r="36" fill="url(#paint0_linear)"/>
</g>
<path fill-rule="evenodd" clip-rule="evenodd" d="M52.5429 23.2857C51.2517 21.6718 50.6061 20.8648 49.7076 20.4326L49.7056 20.4317C48.8068 20 47.7734 20 45.7065 20H42.2935C40.2266 20 39.1932 20 38.2944 20.4317L38.2924 20.4326C37.3939 20.8648 36.7483 21.6718 35.4571 23.2857C30.1317 23.2857 27.4689 23.2857 25.4731 24.4052C24.068 25.1933 22.9076 26.3538 22.1195 27.7588C21 29.7546 21 32.4174 21 37.7429V39.0571C21 45.6326 21 48.9203 22.6763 51.2239C23.2145 51.9635 23.8651 52.6141 24.6046 53.1522C26.9083 54.8286 30.196 54.8286 36.7714 54.8286H51.2286C57.804 54.8286 61.0917 54.8286 63.3954 53.1522C64.1349 52.6141 64.7855 51.9635 65.3237 51.2239C67 48.9203 67 45.6326 67 39.0571V37.7429C67 32.4174 67 29.7546 65.8805 27.7588C65.0924 26.3538 63.932 25.1933 62.5269 24.4052C60.5311 23.2857 57.8683 23.2857 52.5429 23.2857ZM62.5269 24.4052L61.0593 27.0217C61.983 27.5398 62.7459 28.3027 63.264 29.2265C63.5299 29.7006 63.7497 30.3886 63.8717 31.7667C63.9973 33.1846 64 35.0263 64 37.7429V39.0571C64 42.4118 63.9959 44.6865 63.808 46.419C63.6261 48.0952 63.3017 48.904 62.8979 49.4588C62.5442 49.945 62.1164 50.3727 61.6302 50.7265L63.3954 53.1522L61.6302 50.7265C61.0754 51.1302 60.2666 51.4547 58.5904 51.6365C56.8579 51.8244 54.5832 51.8286 51.2286 51.8286H36.7714C33.4168 51.8286 31.1421 51.8244 29.4096 51.6365C27.7334 51.4547 26.9246 51.1302 26.3698 50.7265L24.6046 53.1522L26.3698 50.7265C25.8836 50.3727 25.4558 49.945 25.1021 49.4588L22.6763 51.2239L25.1021 49.4588C24.6983 48.904 24.3739 48.0952 24.192 46.419C24.0041 44.6865 24 42.4118 24 39.0571V37.7429C24 35.0263 24.0027 33.1846 24.1283 31.7667C24.2503 30.3886 24.4701 29.7006 24.736 29.2265C25.2541 28.3027 26.017 27.5398 26.9407 27.0217C27.4149 26.7558 28.1029 26.536 29.481 26.414C30.8989 26.2885 32.7406 26.2857 35.4571 26.2857H36.899L37.7997 25.1598C39.2688 23.3235 39.4535 23.2032 39.5921 23.1365L39.5927 23.1362L39.5933 23.1359L39.5934 23.1359L39.5941 23.1355C39.7328 23.069 39.9432 23 42.2935 23H45.7065C48.0588 23 48.2676 23.0692 48.4062 23.1357L48.4067 23.1359L48.4073 23.1362L48.408 23.1365L48.4082 23.1367C48.5468 23.2034 48.7324 23.325 50.2003 25.1598L51.101 26.2857H52.5429C55.2594 26.2857 57.1011 26.2885 58.519 26.414C59.8971 26.536 60.5851 26.7558 61.0593 27.0217L62.5269 24.4052ZM44.0002 46.1898C48.206 46.1898 51.6155 42.7802 51.6155 38.5744C51.6155 34.3685 48.206 30.959 44.0002 30.959C39.7943 30.959 36.3848 34.3685 36.3848 38.5744C36.3848 42.7802 39.7943 46.1898 44.0002 46.1898ZM44.0002 49.1898C49.8629 49.1898 54.6155 44.4371 54.6155 38.5744C54.6155 32.7117 49.8629 27.959 44.0002 27.959C38.1374 27.959 33.3848 32.7117 33.3848 38.5744C33.3848 44.4371 38.1374 49.1898 44.0002 49.1898ZM58.5666 33.8012C59.8369 33.8012 60.8666 32.7714 60.8666 31.5012C60.8666 30.2309 59.8369 29.2012 58.5666 29.2012C57.2963 29.2012 56.2666 30.2309 56.2666 31.5012C56.2666 32.7714 57.2963 33.8012 58.5666 33.8012Z" fill="white"/>
<defs>
<filter id="filter0_d" x="0" y="0" width="88" height="88" filterUnits="userSpaceOnUse" color-interpolation-filters="sRGB">
<feFlood flood-opacity="0" result="BackgroundImageFix"/>
<feColorMatrix in="SourceAlpha" type="matrix" values="0 0 0 0 0 0 0 0 0 0 0 0 0 0 0 0 0 0 127 0"/>
<feOffset dy="6"/>
<feGaussianBlur stdDeviation="4"/>
<feColorMatrix type="matrix" values="0 0 0 0 0.67451 0 0 0 0 0.372549 0 0 0 0 0.768627 0 0 0 0.3 0"/>
<feBlend mode="normal" in2="BackgroundImageFix" result="effect1_dropShadow"/>
<feBlend mode="normal" in="SourceGraphic" in2="effect1_dropShadow" result="shape"/>
</filter>
<linearGradient id="paint0_linear" x1="30.1102" y1="2" x2="64.625" y2="67.1618" gradientUnits="userSpaceOnUse">
<stop stop-color="#DC87B5"/>
<stop offset="1" stop-color="#9B50C9"/>
</linearGradient>
</defs>
</svg>
