<svg width="176" height="176" viewBox="0 0 176 176" fill="none" xmlns="http://www.w3.org/2000/svg">
<g filter="url(#filter0_d)">
<circle cx="88" cy="82" r="80" fill="url(#paint0_linear)"/>
</g>
<path fill-rule="evenodd" clip-rule="evenodd" d="M62.128 37H62.0022C59.2864 37 57.0668 36.9999 55.2632 37.1473C53.3968 37.2998 51.7133 37.6249 50.1418 38.4256C47.6806 39.6797 45.6797 41.6806 44.4256 44.1418C43.6249 45.7133 43.2998 47.3968 43.1473 49.2632C42.9999 51.0668 43 53.2864 43 56.0022V56.128V56.8C43 58.4569 44.3431 59.8 46 59.8C47.6569 59.8 49 58.4569 49 56.8V56.128C49 53.2558 49.0023 51.2821 49.1274 49.7518C49.2495 48.2564 49.4738 47.4505 49.7717 46.8658C50.4505 45.5336 51.5336 44.4505 52.8657 43.7717L51.5038 41.0987L52.8658 43.7717C53.4505 43.4738 54.2564 43.2495 55.7518 43.1274C57.2821 43.0023 59.2558 43 62.128 43H62.8C64.4569 43 65.8 41.6569 65.8 40C65.8 38.3431 64.4569 37 62.8 37H62.128ZM113.872 43C116.744 43 118.718 43.0023 120.248 43.1274C121.744 43.2495 122.55 43.4738 123.134 43.7717L124.491 41.1083L123.134 43.7717C124.466 44.4505 125.55 45.5336 126.228 46.8657C126.526 47.4505 126.75 48.2564 126.873 49.7518C126.998 51.2821 127 53.2558 127 56.128V56.8C127 58.4569 128.343 59.8 130 59.8C131.657 59.8 133 58.4569 133 56.8V56.128V56.0021C133 53.2863 133 51.0668 132.853 49.2632C132.7 47.3968 132.375 45.7133 131.574 44.1418C130.32 41.6806 128.319 39.6797 125.858 38.4256C124.287 37.6249 122.603 37.2998 120.737 37.1473C118.933 36.9999 116.714 37 113.998 37H113.872H113.2C111.543 37 110.2 38.3431 110.2 40C110.2 41.6569 111.543 43 113.2 43H113.872ZM49 107.2C49 105.543 47.6569 104.2 46 104.2C44.3432 104.2 43 105.543 43 107.2V107.872L43 107.998C43 110.714 42.9999 112.933 43.1473 114.737C43.2998 116.603 43.6249 118.287 44.4256 119.858C45.6797 122.319 47.6806 124.32 50.1418 125.574C51.7133 126.375 53.3968 126.7 55.2632 126.853C57.0668 127 59.2863 127 62.0021 127H62.128H62.8C64.4569 127 65.8 125.657 65.8 124C65.8 122.343 64.4569 121 62.8 121H62.128C59.2558 121 57.2821 120.998 55.7518 120.873C54.2564 120.75 53.4505 120.526 52.8658 120.228C51.5336 119.55 50.4505 118.466 49.7717 117.134C49.4738 116.55 49.2495 115.744 49.1274 114.248C49.0023 112.718 49 110.744 49 107.872V107.2ZM133 107.2C133 105.543 131.657 104.2 130 104.2C128.343 104.2 127 105.543 127 107.2V107.872C127 110.744 126.998 112.718 126.873 114.248C126.75 115.744 126.526 116.55 126.228 117.134C125.55 118.466 124.466 119.55 123.134 120.228C122.55 120.526 121.744 120.75 120.248 120.873C118.718 120.998 116.744 121 113.872 121H113.2C111.543 121 110.2 122.343 110.2 124C110.2 125.657 111.543 127 113.2 127H113.872H113.998C116.714 127 118.933 127 120.737 126.853C122.603 126.7 124.287 126.375 125.858 125.574C128.319 124.32 130.32 122.319 131.574 119.858C132.375 118.287 132.7 116.603 132.853 114.737C133 112.933 133 110.714 133 107.998V107.872V107.2ZM70.0005 57C71.6573 57 73.0005 58.3431 73.0005 60V66C73.0005 67.6569 71.6573 69 70.0005 69C68.3436 69 67.0005 67.6569 67.0005 66V60C67.0005 58.3431 68.3436 57 70.0005 57ZM72.5308 100.388C71.6609 99.0212 69.8547 98.5889 68.457 99.4275C67.0362 100.28 66.5755 102.123 67.428 103.543L70.0005 102C67.428 103.543 67.4293 103.546 67.4307 103.548L67.4335 103.553L67.4394 103.562L67.4523 103.583C67.4615 103.598 67.4717 103.614 67.4829 103.632C67.5055 103.667 67.5323 103.708 67.5636 103.754C67.6263 103.847 67.7071 103.96 67.8079 104.09C68.0096 104.352 68.2909 104.683 68.6666 105.059C69.4202 105.812 70.5426 106.733 72.1435 107.622C75.358 109.408 80.3756 111 88.0005 111C95.6253 111 100.643 109.408 103.857 107.622C105.458 106.733 106.581 105.812 107.334 105.059C107.71 104.683 107.991 104.352 108.193 104.09C108.294 103.96 108.375 103.847 108.437 103.754C108.462 103.718 108.484 103.684 108.504 103.654C108.509 103.647 108.513 103.639 108.518 103.632C108.529 103.614 108.539 103.598 108.549 103.583L108.562 103.562L108.567 103.553L108.57 103.548C108.572 103.546 108.573 103.543 106 102L108.573 103.543C109.425 102.123 108.965 100.28 107.544 99.4275C106.146 98.5889 104.34 99.0212 103.47 100.388C103.465 100.396 103.455 100.408 103.442 100.425C103.391 100.492 103.278 100.629 103.092 100.816C102.72 101.188 102.043 101.767 100.944 102.378C98.758 103.592 94.7756 105 88.0005 105C81.2253 105 77.2429 103.592 75.0574 102.378C73.9584 101.767 73.2807 101.188 72.9093 100.816C72.7225 100.629 72.61 100.492 72.5586 100.425C72.5454 100.408 72.5362 100.396 72.5308 100.388ZM109 60C109 58.3431 107.657 57 106 57C104.344 57 103 58.3431 103 60V66C103 67.6569 104.344 69 106 69C107.657 69 109 67.6569 109 66V60ZM88.0005 69C89.6573 69 91.0005 70.3431 91.0005 72V81.9167C91.0005 83.4814 90.521 85.8786 89.0609 87.9716C87.4916 90.2214 84.8518 92 81.0005 92C79.3436 92 78.0005 90.6569 78.0005 89C78.0005 87.3431 79.3436 86 81.0005 86C82.7491 86 83.6094 85.2995 84.14 84.5388C84.7799 83.6214 85.0005 82.4769 85.0005 81.9167V72C85.0005 70.3431 86.3436 69 88.0005 69Z" fill="white"/>
<defs>
<filter id="filter0_d" x="0" y="0" width="176" height="176" filterUnits="userSpaceOnUse" color-interpolation-filters="sRGB">
<feFlood flood-opacity="0" result="BackgroundImageFix"/>
<feColorMatrix in="SourceAlpha" type="matrix" values="0 0 0 0 0 0 0 0 0 0 0 0 0 0 0 0 0 0 127 0"/>
<feOffset dy="6"/>
<feGaussianBlur stdDeviation="4"/>
<feColorMatrix type="matrix" values="0 0 0 0 0.67451 0 0 0 0 0.372549 0 0 0 0 0.768627 0 0 0 0.3 0"/>
<feBlend mode="normal" in2="BackgroundImageFix" result="effect1_dropShadow"/>
<feBlend mode="normal" in="SourceGraphic" in2="effect1_dropShadow" result="shape"/>
</filter>
<linearGradient id="paint0_linear" x1="57.1339" y1="2" x2="133.833" y2="146.804" gradientUnits="userSpaceOnUse">
<stop stop-color="#DC87B5"/>
<stop offset="1" stop-color="#9B50C9"/>
</linearGradient>
</defs>
</svg>
