<svg width="88" height="88" viewBox="0 0 88 88" fill="none" xmlns="http://www.w3.org/2000/svg">
<g filter="url(#filter0_d)">
<circle cx="44" cy="38" r="36" fill="url(#paint0_linear)"/>
</g>
<path fill-rule="evenodd" clip-rule="evenodd" d="M42.8143 19.4098C43.5129 18.8634 44.494 18.8634 45.1927 19.4098L58.2164 29.5943C58.9394 30.1597 58.5396 31.3199 57.6218 31.3199H52.4605V37.2879C52.4605 38.354 51.5962 39.2183 50.53 39.2183H37.4738C36.4076 39.2183 35.5433 38.354 35.5433 37.2879V31.3199H30.3851C29.4673 31.3199 29.0675 30.1596 29.7905 29.5943L42.8143 19.4098ZM37.4738 41.1989C36.4076 41.1989 35.5433 42.0633 35.5433 43.1294V44.207C35.5433 45.2731 36.4076 46.1374 37.4738 46.1374H50.53C51.5962 46.1374 52.4605 45.2731 52.4605 44.207V43.1294C52.4605 42.0633 51.5962 41.1989 50.53 41.1989H37.4738ZM35.5433 50.0409C35.5433 48.9748 36.4076 48.1105 37.4738 48.1105H50.53C51.5962 48.1105 52.4605 48.9748 52.4605 50.041V50.1308C52.4605 51.197 51.5962 52.0613 50.53 52.0613H37.4738C36.4076 52.0613 35.5433 51.197 35.5433 50.1308V50.0409ZM37.0249 54.0377C36.2066 54.0377 35.5433 54.701 35.5433 55.5192C35.5433 56.3374 36.2066 57.0008 37.0249 57.0008H50.979C51.7972 57.0008 52.4605 56.3374 52.4605 55.5192C52.4605 54.701 51.7972 54.0377 50.979 54.0377H37.0249Z" fill="white"/>
<defs>
<filter id="filter0_d" x="0" y="0" width="88" height="88" filterUnits="userSpaceOnUse" color-interpolation-filters="sRGB">
<feFlood flood-opacity="0" result="BackgroundImageFix"/>
<feColorMatrix in="SourceAlpha" type="matrix" values="0 0 0 0 0 0 0 0 0 0 0 0 0 0 0 0 0 0 127 0" result="hardAlpha"/>
<feOffset dy="6"/>
<feGaussianBlur stdDeviation="4"/>
<feColorMatrix type="matrix" values="0 0 0 0 0.841667 0 0 0 0 0.530728 0 0 0 0 0.417326 0 0 0 0.4 0"/>
<feBlend mode="normal" in2="BackgroundImageFix" result="effect1_dropShadow"/>
<feBlend mode="normal" in="SourceGraphic" in2="effect1_dropShadow" result="shape"/>
</filter>
<linearGradient id="paint0_linear" x1="30.1102" y1="2" x2="64.625" y2="67.1618" gradientUnits="userSpaceOnUse">
<stop stop-color="#FAAC80"/>
<stop offset="1" stop-color="#E84E68"/>
</linearGradient>
</defs>
</svg>
