<svg width="301" height="196" viewBox="0 0 301 196" fill="none" xmlns="http://www.w3.org/2000/svg">
<path fill-rule="evenodd" clip-rule="evenodd" d="M10 0H0V10V185.999V195.999H10H290.003H300.003V185.999V10V0H290.003H10ZM20 141.996L20 53.9961C38.7764 53.9961 53.9979 38.7759 54 20H246C246.002 38.7759 261.224 53.9961 280 53.9961V20H280.003V175.999H20V175.996H54C54 157.218 38.7777 141.996 20 141.996ZM280 141.996C261.222 141.996 246 157.218 246 175.996H280V141.996ZM150.664 135.055C171.099 135.055 187.664 118.489 187.664 98.0547C187.664 77.6202 171.099 61.0547 150.664 61.0547C130.23 61.0547 113.664 77.6202 113.664 98.0547C113.664 118.489 130.23 135.055 150.664 135.055Z" fill="url(#paint0_linear)"/>
<defs>
<linearGradient id="paint0_linear" x1="92.127" y1="-1.70874e-06" x2="162.326" y2="202.858" gradientUnits="userSpaceOnUse">
<stop stop-color="#FAAC80"/>
<stop offset="1" stop-color="#E84E68"/>
</linearGradient>
</defs>
</svg>
