<svg width="150" height="150" viewBox="0 0 150 150" fill="none" xmlns="http://www.w3.org/2000/svg">
<path fill-rule="evenodd" clip-rule="evenodd" d="M10 0C4.47715 0 0 4.47715 0 10C0 15.5228 4.47715 20 10 20C76.2742 20 130 73.7258 130 140C130 145.523 134.477 150 140 150C145.523 150 150 145.523 150 140C150 62.6801 87.3199 0 10 0ZM0 50C0 44.4772 4.47715 40 10 40C65.2285 40 110 84.7715 110 140C110 145.523 105.523 150 100 150C94.4771 150 90 145.523 90 140C90 95.8172 54.1828 60 10 60C4.47715 60 0 55.5228 0 50ZM0 90C0 84.4771 4.47715 80 10 80C43.1371 80 70 106.863 70 140C70 145.523 65.5228 150 60 150C54.4772 150 50 145.523 50 140C50 117.909 32.0914 100 10 100C4.47715 100 0 95.5229 0 90Z" fill="url(#paint0_linear)"/>
<defs>
<linearGradient id="paint0_linear" x1="46.063" y1="-1.30772e-06" x2="117.969" y2="135.754" gradientUnits="userSpaceOnUse">
<stop stop-color="#FAAC80"/>
<stop offset="1" stop-color="#E84E68"/>
</linearGradient>
</defs>
</svg>
