<svg width="360" height="360" viewBox="0 0 360 360" fill="none" xmlns="http://www.w3.org/2000/svg">
<path d="M0 0H12.4138V12.4138H0V0ZM12.4138 0H24.8276V12.4138H12.4138V0ZM24.8276 0H37.2414V12.4138H24.8276V0ZM37.2414 0H49.6552V12.4138H37.2414V0ZM49.6552 0H62.069V12.4138H49.6552V0ZM62.069 0H74.4828V12.4138H62.069V0ZM74.4828 0H86.8966V12.4138H74.4828V0ZM124.138 0H136.552V12.4138H124.138V0ZM148.966 0H161.379V12.4138H148.966V0ZM161.379 0H173.793V12.4138H161.379V0ZM173.793 0H186.207V12.4138H173.793V0ZM186.207 0H198.621V12.4138H186.207V0ZM223.448 0H235.862V12.4138H223.448V0ZM273.103 0H285.517V12.4138H273.103V0ZM285.517 0H297.931V12.4138H285.517V0ZM297.931 0H310.345V12.4138H297.931V0ZM310.345 0H322.759V12.4138H310.345V0ZM322.759 0H335.172V12.4138H322.759V0ZM335.172 0H347.586V12.4138H335.172V0ZM347.586 0H360V12.4138H347.586V0ZM0 12.4138H12.4138V24.8276H0V12.4138ZM74.4828 12.4138H86.8966V24.8276H74.4828V12.4138ZM99.3103 12.4138H111.724V24.8276H99.3103V12.4138ZM124.138 12.4138H136.552V24.8276H124.138V12.4138ZM161.379 12.4138H173.793V24.8276H161.379V12.4138ZM173.793 12.4138H186.207V24.8276H173.793V12.4138ZM186.207 12.4138H198.621V24.8276H186.207V12.4138ZM198.621 12.4138H211.034V24.8276H198.621V12.4138ZM211.034 12.4138H223.448V24.8276H211.034V12.4138ZM273.103 12.4138H285.517V24.8276H273.103V12.4138ZM347.586 12.4138H360V24.8276H347.586V12.4138ZM0 24.8276H12.4138V37.2414H0V24.8276ZM24.8276 24.8276H37.2414V37.2414H24.8276V24.8276ZM37.2414 24.8276H49.6552V37.2414H37.2414V24.8276ZM49.6552 24.8276H62.069V37.2414H49.6552V24.8276ZM74.4828 24.8276H86.8966V37.2414H74.4828V24.8276ZM148.966 24.8276H161.379V37.2414H148.966V24.8276ZM161.379 24.8276H173.793V37.2414H161.379V24.8276ZM186.207 24.8276H198.621V37.2414H186.207V24.8276ZM211.034 24.8276H223.448V37.2414H211.034V24.8276ZM223.448 24.8276H235.862V37.2414H223.448V24.8276ZM248.276 24.8276H260.69V37.2414H248.276V24.8276ZM273.103 24.8276H285.517V37.2414H273.103V24.8276ZM297.931 24.8276H310.345V37.2414H297.931V24.8276ZM310.345 24.8276H322.759V37.2414H310.345V24.8276ZM322.759 24.8276H335.172V37.2414H322.759V24.8276ZM347.586 24.8276H360V37.2414H347.586V24.8276ZM0 37.2414H12.4138V49.6552H0V37.2414ZM24.8276 37.2414H37.2414V49.6552H24.8276V37.2414ZM37.2414 37.2414H49.6552V49.6552H37.2414V37.2414ZM49.6552 37.2414H62.069V49.6552H49.6552V37.2414ZM74.4828 37.2414H86.8966V49.6552H74.4828V37.2414ZM99.3103 37.2414H111.724V49.6552H99.3103V37.2414ZM111.724 37.2414H124.138V49.6552H111.724V37.2414ZM124.138 37.2414H136.552V49.6552H124.138V37.2414ZM148.966 37.2414H161.379V49.6552H148.966V37.2414ZM173.793 37.2414H186.207V49.6552H173.793V37.2414ZM186.207 37.2414H198.621V49.6552H186.207V37.2414ZM273.103 37.2414H285.517V49.6552H273.103V37.2414ZM297.931 37.2414H310.345V49.6552H297.931V37.2414ZM310.345 37.2414H322.759V49.6552H310.345V37.2414ZM322.759 37.2414H335.172V49.6552H322.759V37.2414ZM347.586 37.2414H360V49.6552H347.586V37.2414ZM0 49.6552H12.4138V62.069H0V49.6552ZM24.8276 49.6552H37.2414V62.069H24.8276V49.6552ZM37.2414 49.6552H49.6552V62.069H37.2414V49.6552ZM49.6552 49.6552H62.069V62.069H49.6552V49.6552ZM74.4828 49.6552H86.8966V62.069H74.4828V49.6552ZM111.724 49.6552H124.138V62.069H111.724V49.6552ZM186.207 49.6552H198.621V62.069H186.207V49.6552ZM198.621 49.6552H211.034V62.069H198.621V49.6552ZM223.448 49.6552H235.862V62.069H223.448V49.6552ZM235.862 49.6552H248.276V62.069H235.862V49.6552ZM248.276 49.6552H260.69V62.069H248.276V49.6552ZM273.103 49.6552H285.517V62.069H273.103V49.6552ZM297.931 49.6552H310.345V62.069H297.931V49.6552ZM310.345 49.6552H322.759V62.069H310.345V49.6552ZM322.759 49.6552H335.172V62.069H322.759V49.6552ZM347.586 49.6552H360V62.069H347.586V49.6552ZM0 62.069H12.4138V74.4828H0V62.069ZM74.4828 62.069H86.8966V74.4828H74.4828V62.069ZM99.3103 62.069H111.724V74.4828H99.3103V62.069ZM111.724 62.069H124.138V74.4828H111.724V62.069ZM136.552 62.069H148.966V74.4828H136.552V62.069ZM148.966 62.069H161.379V74.4828H148.966V62.069ZM211.034 62.069H223.448V74.4828H211.034V62.069ZM248.276 62.069H260.69V74.4828H248.276V62.069ZM273.103 62.069H285.517V74.4828H273.103V62.069ZM347.586 62.069H360V74.4828H347.586V62.069ZM0 74.4828H12.4138V86.8966H0V74.4828ZM12.4138 74.4828H24.8276V86.8966H12.4138V74.4828ZM24.8276 74.4828H37.2414V86.8966H24.8276V74.4828ZM37.2414 74.4828H49.6552V86.8966H37.2414V74.4828ZM49.6552 74.4828H62.069V86.8966H49.6552V74.4828ZM62.069 74.4828H74.4828V86.8966H62.069V74.4828ZM74.4828 74.4828H86.8966V86.8966H74.4828V74.4828ZM99.3103 74.4828H111.724V86.8966H99.3103V74.4828ZM124.138 74.4828H136.552V86.8966H124.138V74.4828ZM148.966 74.4828H161.379V86.8966H148.966V74.4828ZM173.793 74.4828H186.207V86.8966H173.793V74.4828ZM198.621 74.4828H211.034V86.8966H198.621V74.4828ZM223.448 74.4828H235.862V86.8966H223.448V74.4828ZM248.276 74.4828H260.69V86.8966H248.276V74.4828ZM273.103 74.4828H285.517V86.8966H273.103V74.4828ZM285.517 74.4828H297.931V86.8966H285.517V74.4828ZM297.931 74.4828H310.345V86.8966H297.931V74.4828ZM310.345 74.4828H322.759V86.8966H310.345V74.4828ZM322.759 74.4828H335.172V86.8966H322.759V74.4828ZM335.172 74.4828H347.586V86.8966H335.172V74.4828ZM347.586 74.4828H360V86.8966H347.586V74.4828ZM111.724 86.8966H124.138V99.3103H111.724V86.8966ZM124.138 86.8966H136.552V99.3103H124.138V86.8966ZM136.552 86.8966H148.966V99.3103H136.552V86.8966ZM173.793 86.8966H186.207V99.3103H173.793V86.8966ZM198.621 86.8966H211.034V99.3103H198.621V86.8966ZM211.034 86.8966H223.448V99.3103H211.034V86.8966ZM223.448 86.8966H235.862V99.3103H223.448V86.8966ZM235.862 86.8966H248.276V99.3103H235.862V86.8966ZM0 99.3103H12.4138V111.724H0V99.3103ZM12.4138 99.3103H24.8276V111.724H12.4138V99.3103ZM24.8276 99.3103H37.2414V111.724H24.8276V99.3103ZM37.2414 99.3103H49.6552V111.724H37.2414V99.3103ZM49.6552 99.3103H62.069V111.724H49.6552V99.3103ZM74.4828 99.3103H86.8966V111.724H74.4828V99.3103ZM86.8966 99.3103H99.3103V111.724H86.8966V99.3103ZM99.3103 99.3103H111.724V111.724H99.3103V99.3103ZM111.724 99.3103H124.138V111.724H111.724V99.3103ZM136.552 99.3103H148.966V111.724H136.552V99.3103ZM211.034 99.3103H223.448V111.724H211.034V99.3103ZM260.69 99.3103H273.103V111.724H260.69V99.3103ZM285.517 99.3103H297.931V111.724H285.517V99.3103ZM310.345 99.3103H322.759V111.724H310.345V99.3103ZM335.172 99.3103H347.586V111.724H335.172V99.3103ZM12.4138 111.724H24.8276V124.138H12.4138V111.724ZM37.2414 111.724H49.6552V124.138H37.2414V111.724ZM49.6552 111.724H62.069V124.138H49.6552V111.724ZM86.8966 111.724H99.3103V124.138H86.8966V111.724ZM99.3103 111.724H111.724V124.138H99.3103V111.724ZM124.138 111.724H136.552V124.138H124.138V111.724ZM148.966 111.724H161.379V124.138H148.966V111.724ZM161.379 111.724H173.793V124.138H161.379V111.724ZM173.793 111.724H186.207V124.138H173.793V111.724ZM186.207 111.724H198.621V124.138H186.207V111.724ZM248.276 111.724H260.69V124.138H248.276V111.724ZM297.931 111.724H310.345V124.138H297.931V111.724ZM335.172 111.724H347.586V124.138H335.172V111.724ZM347.586 111.724H360V124.138H347.586V111.724ZM24.8276 124.138H37.2414V136.552H24.8276V124.138ZM37.2414 124.138H49.6552V136.552H37.2414V124.138ZM74.4828 124.138H86.8966V136.552H74.4828V124.138ZM86.8966 124.138H99.3103V136.552H86.8966V124.138ZM99.3103 124.138H111.724V136.552H99.3103V124.138ZM124.138 124.138H136.552V136.552H124.138V124.138ZM161.379 124.138H173.793V136.552H161.379V124.138ZM173.793 124.138H186.207V136.552H173.793V124.138ZM186.207 124.138H198.621V136.552H186.207V124.138ZM211.034 124.138H223.448V136.552H211.034V124.138ZM260.69 124.138H273.103V136.552H260.69V124.138ZM285.517 124.138H297.931V136.552H285.517V124.138ZM310.345 124.138H322.759V136.552H310.345V124.138ZM0 136.552H12.4138V148.966H0V136.552ZM12.4138 136.552H24.8276V148.966H12.4138V136.552ZM24.8276 136.552H37.2414V148.966H24.8276V136.552ZM37.2414 136.552H49.6552V148.966H37.2414V136.552ZM49.6552 136.552H62.069V148.966H49.6552V136.552ZM86.8966 136.552H99.3103V148.966H86.8966V136.552ZM148.966 136.552H161.379V148.966H148.966V136.552ZM161.379 136.552H173.793V148.966H161.379V136.552ZM186.207 136.552H198.621V148.966H186.207V136.552ZM211.034 136.552H223.448V148.966H211.034V136.552ZM223.448 136.552H235.862V148.966H223.448V136.552ZM235.862 136.552H248.276V148.966H235.862V136.552ZM248.276 136.552H260.69V148.966H248.276V136.552ZM260.69 136.552H273.103V148.966H260.69V136.552ZM273.103 136.552H285.517V148.966H273.103V136.552ZM297.931 136.552H310.345V148.966H297.931V136.552ZM310.345 136.552H322.759V148.966H310.345V136.552ZM335.172 136.552H347.586V148.966H335.172V136.552ZM0 148.966H12.4138V161.379H0V148.966ZM12.4138 148.966H24.8276V161.379H12.4138V148.966ZM49.6552 148.966H62.069V161.379H49.6552V148.966ZM74.4828 148.966H86.8966V161.379H74.4828V148.966ZM86.8966 148.966H99.3103V161.379H86.8966V148.966ZM111.724 148.966H124.138V161.379H111.724V148.966ZM124.138 148.966H136.552V161.379H124.138V148.966ZM148.966 148.966H161.379V161.379H148.966V148.966ZM173.793 148.966H186.207V161.379H173.793V148.966ZM186.207 148.966H198.621V161.379H186.207V148.966ZM198.621 148.966H211.034V161.379H198.621V148.966ZM248.276 148.966H260.69V161.379H248.276V148.966ZM260.69 148.966H273.103V161.379H260.69V148.966ZM273.103 148.966H285.517V161.379H273.103V148.966ZM322.759 148.966H335.172V161.379H322.759V148.966ZM12.4138 161.379H24.8276V173.793H12.4138V161.379ZM24.8276 161.379H37.2414V173.793H24.8276V161.379ZM62.069 161.379H74.4828V173.793H62.069V161.379ZM86.8966 161.379H99.3103V173.793H86.8966V161.379ZM99.3103 161.379H111.724V173.793H99.3103V161.379ZM111.724 161.379H124.138V173.793H111.724V161.379ZM186.207 161.379H198.621V173.793H186.207V161.379ZM198.621 161.379H211.034V173.793H198.621V161.379ZM273.103 161.379H285.517V173.793H273.103V161.379ZM297.931 161.379H310.345V173.793H297.931V161.379ZM310.345 161.379H322.759V173.793H310.345V161.379ZM322.759 161.379H335.172V173.793H322.759V161.379ZM347.586 161.379H360V173.793H347.586V161.379ZM0 173.793H12.4138V186.207H0V173.793ZM12.4138 173.793H24.8276V186.207H12.4138V173.793ZM37.2414 173.793H49.6552V186.207H37.2414V173.793ZM74.4828 173.793H86.8966V186.207H74.4828V173.793ZM99.3103 173.793H111.724V186.207H99.3103V173.793ZM136.552 173.793H148.966V186.207H136.552V173.793ZM148.966 173.793H161.379V186.207H148.966V173.793ZM211.034 173.793H223.448V186.207H211.034V173.793ZM235.862 173.793H248.276V186.207H235.862V173.793ZM248.276 173.793H260.69V186.207H248.276V173.793ZM285.517 173.793H297.931V186.207H285.517V173.793ZM0 186.207H12.4138V198.621H0V186.207ZM37.2414 186.207H49.6552V198.621H37.2414V186.207ZM49.6552 186.207H62.069V198.621H49.6552V186.207ZM62.069 186.207H74.4828V198.621H62.069V186.207ZM86.8966 186.207H99.3103V198.621H86.8966V186.207ZM99.3103 186.207H111.724V198.621H99.3103V186.207ZM111.724 186.207H124.138V198.621H111.724V186.207ZM124.138 186.207H136.552V198.621H124.138V186.207ZM136.552 186.207H148.966V198.621H136.552V186.207ZM173.793 186.207H186.207V198.621H173.793V186.207ZM198.621 186.207H211.034V198.621H198.621V186.207ZM211.034 186.207H223.448V198.621H211.034V186.207ZM223.448 186.207H235.862V198.621H223.448V186.207ZM235.862 186.207H248.276V198.621H235.862V186.207ZM260.69 186.207H273.103V198.621H260.69V186.207ZM273.103 186.207H285.517V198.621H273.103V186.207ZM297.931 186.207H310.345V198.621H297.931V186.207ZM310.345 186.207H322.759V198.621H310.345V186.207ZM24.8276 198.621H37.2414V211.034H24.8276V198.621ZM74.4828 198.621H86.8966V211.034H74.4828V198.621ZM86.8966 198.621H99.3103V211.034H86.8966V198.621ZM99.3103 198.621H111.724V211.034H99.3103V198.621ZM124.138 198.621H136.552V211.034H124.138V198.621ZM136.552 198.621H148.966V211.034H136.552V198.621ZM186.207 198.621H198.621V211.034H186.207V198.621ZM198.621 198.621H211.034V211.034H198.621V198.621ZM211.034 198.621H223.448V211.034H211.034V198.621ZM248.276 198.621H260.69V211.034H248.276V198.621ZM273.103 198.621H285.517V211.034H273.103V198.621ZM297.931 198.621H310.345V211.034H297.931V198.621ZM322.759 198.621H335.172V211.034H322.759V198.621ZM335.172 198.621H347.586V211.034H335.172V198.621ZM347.586 198.621H360V211.034H347.586V198.621ZM0 211.034H12.4138V223.448H0V211.034ZM99.3103 211.034H111.724V223.448H99.3103V211.034ZM148.966 211.034H161.379V223.448H148.966V211.034ZM161.379 211.034H173.793V223.448H161.379V211.034ZM173.793 211.034H186.207V223.448H173.793V211.034ZM198.621 211.034H211.034V223.448H198.621V211.034ZM235.862 211.034H248.276V223.448H235.862V211.034ZM297.931 211.034H310.345V223.448H297.931V211.034ZM322.759 211.034H335.172V223.448H322.759V211.034ZM335.172 211.034H347.586V223.448H335.172V211.034ZM347.586 211.034H360V223.448H347.586V211.034ZM0 223.448H12.4138V235.862H0V223.448ZM24.8276 223.448H37.2414V235.862H24.8276V223.448ZM37.2414 223.448H49.6552V235.862H37.2414V223.448ZM74.4828 223.448H86.8966V235.862H74.4828V223.448ZM99.3103 223.448H111.724V235.862H99.3103V223.448ZM161.379 223.448H173.793V235.862H161.379V223.448ZM173.793 223.448H186.207V235.862H173.793V223.448ZM211.034 223.448H223.448V235.862H211.034V223.448ZM285.517 223.448H297.931V235.862H285.517V223.448ZM310.345 223.448H322.759V235.862H310.345V223.448ZM0 235.862H12.4138V248.276H0V235.862ZM24.8276 235.862H37.2414V248.276H24.8276V235.862ZM49.6552 235.862H62.069V248.276H49.6552V235.862ZM62.069 235.862H74.4828V248.276H62.069V235.862ZM86.8966 235.862H99.3103V248.276H86.8966V235.862ZM99.3103 235.862H111.724V248.276H99.3103V235.862ZM124.138 235.862H136.552V248.276H124.138V235.862ZM148.966 235.862H161.379V248.276H148.966V235.862ZM161.379 235.862H173.793V248.276H161.379V235.862ZM198.621 235.862H211.034V248.276H198.621V235.862ZM223.448 235.862H235.862V248.276H223.448V235.862ZM235.862 235.862H248.276V248.276H235.862V235.862ZM248.276 235.862H260.69V248.276H248.276V235.862ZM273.103 235.862H285.517V248.276H273.103V235.862ZM297.931 235.862H310.345V248.276H297.931V235.862ZM310.345 235.862H322.759V248.276H310.345V235.862ZM335.172 235.862H347.586V248.276H335.172V235.862ZM347.586 235.862H360V248.276H347.586V235.862ZM0 248.276H12.4138V260.69H0V248.276ZM49.6552 248.276H62.069V260.69H49.6552V248.276ZM74.4828 248.276H86.8966V260.69H74.4828V248.276ZM86.8966 248.276H99.3103V260.69H86.8966V248.276ZM124.138 248.276H136.552V260.69H124.138V248.276ZM148.966 248.276H161.379V260.69H148.966V248.276ZM173.793 248.276H186.207V260.69H173.793V248.276ZM186.207 248.276H198.621V260.69H186.207V248.276ZM198.621 248.276H211.034V260.69H198.621V248.276ZM211.034 248.276H223.448V260.69H211.034V248.276ZM223.448 248.276H235.862V260.69H223.448V248.276ZM248.276 248.276H260.69V260.69H248.276V248.276ZM260.69 248.276H273.103V260.69H260.69V248.276ZM273.103 248.276H285.517V260.69H273.103V248.276ZM285.517 248.276H297.931V260.69H285.517V248.276ZM297.931 248.276H310.345V260.69H297.931V248.276ZM310.345 248.276H322.759V260.69H310.345V248.276ZM322.759 248.276H335.172V260.69H322.759V248.276ZM99.3103 260.69H111.724V273.103H99.3103V260.69ZM124.138 260.69H136.552V273.103H124.138V260.69ZM223.448 260.69H235.862V273.103H223.448V260.69ZM235.862 260.69H248.276V273.103H235.862V260.69ZM248.276 260.69H260.69V273.103H248.276V260.69ZM297.931 260.69H310.345V273.103H297.931V260.69ZM322.759 260.69H335.172V273.103H322.759V260.69ZM347.586 260.69H360V273.103H347.586V260.69ZM0 273.103H12.4138V285.517H0V273.103ZM12.4138 273.103H24.8276V285.517H12.4138V273.103ZM24.8276 273.103H37.2414V285.517H24.8276V273.103ZM37.2414 273.103H49.6552V285.517H37.2414V273.103ZM49.6552 273.103H62.069V285.517H49.6552V273.103ZM62.069 273.103H74.4828V285.517H62.069V273.103ZM74.4828 273.103H86.8966V285.517H74.4828V273.103ZM99.3103 273.103H111.724V285.517H99.3103V273.103ZM111.724 273.103H124.138V285.517H111.724V273.103ZM124.138 273.103H136.552V285.517H124.138V273.103ZM136.552 273.103H148.966V285.517H136.552V273.103ZM148.966 273.103H161.379V285.517H148.966V273.103ZM186.207 273.103H198.621V285.517H186.207V273.103ZM211.034 273.103H223.448V285.517H211.034V273.103ZM235.862 273.103H248.276V285.517H235.862V273.103ZM248.276 273.103H260.69V285.517H248.276V273.103ZM273.103 273.103H285.517V285.517H273.103V273.103ZM297.931 273.103H310.345V285.517H297.931V273.103ZM310.345 273.103H322.759V285.517H310.345V273.103ZM0 285.517H12.4138V297.931H0V285.517ZM74.4828 285.517H86.8966V297.931H74.4828V285.517ZM124.138 285.517H136.552V297.931H124.138V285.517ZM136.552 285.517H148.966V297.931H136.552V285.517ZM173.793 285.517H186.207V297.931H173.793V285.517ZM198.621 285.517H211.034V297.931H198.621V285.517ZM211.034 285.517H223.448V297.931H211.034V285.517ZM223.448 285.517H235.862V297.931H223.448V285.517ZM235.862 285.517H248.276V297.931H235.862V285.517ZM248.276 285.517H260.69V297.931H248.276V285.517ZM297.931 285.517H310.345V297.931H297.931V285.517ZM310.345 285.517H322.759V297.931H310.345V285.517ZM347.586 285.517H360V297.931H347.586V285.517ZM0 297.931H12.4138V310.345H0V297.931ZM24.8276 297.931H37.2414V310.345H24.8276V297.931ZM37.2414 297.931H49.6552V310.345H37.2414V297.931ZM49.6552 297.931H62.069V310.345H49.6552V297.931ZM74.4828 297.931H86.8966V310.345H74.4828V297.931ZM99.3103 297.931H111.724V310.345H99.3103V297.931ZM111.724 297.931H124.138V310.345H111.724V297.931ZM136.552 297.931H148.966V310.345H136.552V297.931ZM186.207 297.931H198.621V310.345H186.207V297.931ZM223.448 297.931H235.862V310.345H223.448V297.931ZM235.862 297.931H248.276V310.345H235.862V297.931ZM248.276 297.931H260.69V310.345H248.276V297.931ZM260.69 297.931H273.103V310.345H260.69V297.931ZM273.103 297.931H285.517V310.345H273.103V297.931ZM285.517 297.931H297.931V310.345H285.517V297.931ZM297.931 297.931H310.345V310.345H297.931V297.931ZM0 310.345H12.4138V322.759H0V310.345ZM24.8276 310.345H37.2414V322.759H24.8276V310.345ZM37.2414 310.345H49.6552V322.759H37.2414V310.345ZM49.6552 310.345H62.069V322.759H49.6552V310.345ZM74.4828 310.345H86.8966V322.759H74.4828V310.345ZM99.3103 310.345H111.724V322.759H99.3103V310.345ZM124.138 310.345H136.552V322.759H124.138V310.345ZM148.966 310.345H161.379V322.759H148.966V310.345ZM161.379 310.345H173.793V322.759H161.379V310.345ZM173.793 310.345H186.207V322.759H173.793V310.345ZM198.621 310.345H211.034V322.759H198.621V310.345ZM248.276 310.345H260.69V322.759H248.276V310.345ZM335.172 310.345H347.586V322.759H335.172V310.345ZM0 322.759H12.4138V335.172H0V322.759ZM24.8276 322.759H37.2414V335.172H24.8276V322.759ZM37.2414 322.759H49.6552V335.172H37.2414V322.759ZM49.6552 322.759H62.069V335.172H49.6552V322.759ZM74.4828 322.759H86.8966V335.172H74.4828V322.759ZM99.3103 322.759H111.724V335.172H99.3103V322.759ZM111.724 322.759H124.138V335.172H111.724V322.759ZM124.138 322.759H136.552V335.172H124.138V322.759ZM161.379 322.759H173.793V335.172H161.379V322.759ZM173.793 322.759H186.207V335.172H173.793V322.759ZM211.034 322.759H223.448V335.172H211.034V322.759ZM235.862 322.759H248.276V335.172H235.862V322.759ZM297.931 322.759H310.345V335.172H297.931V322.759ZM310.345 322.759H322.759V335.172H310.345V322.759ZM335.172 322.759H347.586V335.172H335.172V322.759ZM0 335.172H12.4138V347.586H0V335.172ZM74.4828 335.172H86.8966V347.586H74.4828V335.172ZM99.3103 335.172H111.724V347.586H99.3103V335.172ZM124.138 335.172H136.552V347.586H124.138V335.172ZM148.966 335.172H161.379V347.586H148.966V335.172ZM161.379 335.172H173.793V347.586H161.379V335.172ZM211.034 335.172H223.448V347.586H211.034V335.172ZM223.448 335.172H235.862V347.586H223.448V335.172ZM285.517 335.172H297.931V347.586H285.517V335.172ZM322.759 335.172H335.172V347.586H322.759V335.172ZM335.172 335.172H347.586V347.586H335.172V335.172ZM0 347.586H12.4138V360H0V347.586ZM12.4138 347.586H24.8276V360H12.4138V347.586ZM24.8276 347.586H37.2414V360H24.8276V347.586ZM37.2414 347.586H49.6552V360H37.2414V347.586ZM49.6552 347.586H62.069V360H49.6552V347.586ZM62.069 347.586H74.4828V360H62.069V347.586ZM74.4828 347.586H86.8966V360H74.4828V347.586ZM99.3103 347.586H111.724V360H99.3103V347.586ZM148.966 347.586H161.379V360H148.966V347.586ZM173.793 347.586H186.207V360H173.793V347.586ZM186.207 347.586H198.621V360H186.207V347.586ZM235.862 347.586H248.276V360H235.862V347.586ZM248.276 347.586H260.69V360H248.276V347.586ZM260.69 347.586H273.103V360H260.69V347.586ZM273.103 347.586H285.517V360H273.103V347.586ZM297.931 347.586H310.345V360H297.931V347.586ZM310.345 347.586H322.759V360H310.345V347.586Z" fill="black"/>
</svg>
