<svg width="225" height="389" viewBox="0 0 225 389" fill="none" xmlns="http://www.w3.org/2000/svg">
<path fill-rule="evenodd" clip-rule="evenodd" d="M144.936 3.51472C149.622 8.20101 149.622 15.799 144.936 20.4853L20.4853 144.936C15.799 149.622 8.201 149.622 3.51471 144.936C-1.17158 140.25 -1.17158 132.652 3.51471 127.965L127.966 3.51472C132.652 -1.17157 140.25 -1.17157 144.936 3.51472ZM24.0173 194.434C24.0173 187.806 29.3899 182.434 36.0173 182.434H212.017C218.645 182.434 224.017 187.806 224.017 194.434C224.017 201.061 218.645 206.434 212.017 206.434H36.0173C29.3899 206.434 24.0173 201.061 24.0173 194.434ZM127.966 385.353C132.652 390.039 140.25 390.039 144.936 385.353C149.622 380.666 149.622 373.068 144.936 368.382L20.4854 243.931C15.7991 239.245 8.20114 239.245 3.51485 243.931C-1.17144 248.618 -1.17144 256.216 3.51485 260.902L127.966 385.353Z" fill="url(#paint0_linear_2084_16761)"/>
<defs>
<linearGradient id="paint0_linear_2084_16761" x1="68.7927" y1="-3.39019e-06" x2="293.337" y2="244.214" gradientUnits="userSpaceOnUse">
<stop stop-color="#FAAC80"/>
<stop offset="1" stop-color="#E84E68"/>
</linearGradient>
</defs>
</svg>
