<svg width="40" height="39" viewBox="0 0 40 39" fill="none" xmlns="http://www.w3.org/2000/svg">
<path fill-rule="evenodd" clip-rule="evenodd" d="M36.829 17.6197C37.7245 18.2664 38.9747 18.0648 39.6214 17.1693C40.2681 16.2738 40.0665 15.0237 39.171 14.377L21.171 1.37696L20 0.53125L18.829 1.37696L0.829042 14.377C-0.0664084 15.0237 -0.268049 16.2738 0.378668 17.1693C1.02538 18.0648 2.27555 18.2664 3.17101 17.6197L20 5.46538L36.829 17.6197ZM9.00002 20.9983C9.00002 19.8937 8.10459 18.9983 7.00002 18.9983C5.89545 18.9983 5.00002 19.8937 5.00002 20.9983V30.9983C5.00002 35.4166 8.58175 38.9983 13 38.9983H27C31.4183 38.9983 35 35.4166 35 30.9983V20.9983C35 19.8937 34.1046 18.9983 33 18.9983C31.8955 18.9983 31 19.8937 31 20.9983V30.9983C31 33.2075 29.2092 34.9983 27 34.9983H13C10.7909 34.9983 9.00002 33.2075 9.00002 30.9983V20.9983Z" fill="black" fill-opacity="0.3"/>
</svg>
