<svg width="196" height="196" viewBox="0 0 196 196" fill="none" xmlns="http://www.w3.org/2000/svg">
<path fill-rule="evenodd" clip-rule="evenodd" d="M17.2939 11.5292H74.94C78.1237 11.5292 80.7047 14.1101 80.7047 17.2939V74.94C80.7047 78.1237 78.1237 80.7047 74.94 80.7047H17.2939C14.1101 80.7047 11.5292 78.1237 11.5292 74.94V17.2939C11.5292 14.1101 14.1101 11.5292 17.2939 11.5292ZM0 17.2939C0 7.74272 7.74272 0 17.2939 0H74.94C84.4912 0 92.2339 7.74272 92.2339 17.2939V74.94C92.2339 84.4912 84.4912 92.2339 74.94 92.2339H17.2939C7.74272 92.2339 0 84.4912 0 74.94V17.2939ZM121.06 11.5292H178.707C181.89 11.5292 184.471 14.1101 184.471 17.2939V74.94C184.471 78.1237 181.89 80.7047 178.707 80.7047H121.06C117.877 80.7047 115.296 78.1237 115.296 74.94V17.2939C115.296 14.1101 117.877 11.5292 121.06 11.5292ZM103.766 17.2939C103.766 7.74272 111.509 0 121.06 0H178.707C188.258 0 196 7.74272 196 17.2939V74.94C196 84.4912 188.258 92.2339 178.707 92.2339H121.06C111.509 92.2339 103.766 84.4912 103.766 74.94V17.2939ZM74.94 115.296H17.2939C14.1101 115.296 11.5292 117.877 11.5292 121.06V178.707C11.5292 181.89 14.1101 184.471 17.2939 184.471H74.94C78.1237 184.471 80.7047 181.89 80.7047 178.707V121.06C80.7047 117.877 78.1237 115.296 74.94 115.296ZM17.2939 103.766C7.74272 103.766 0 111.509 0 121.06V178.707C0 188.258 7.74272 196 17.2939 196H74.94C84.4912 196 92.2339 188.258 92.2339 178.707V121.06C92.2339 111.509 84.4912 103.766 74.94 103.766H17.2939ZM28.8261 23.0615C25.6424 23.0615 23.0615 25.6424 23.0615 28.8261V63.4138C23.0615 66.5975 25.6424 69.1785 28.8261 69.1785H63.4138C66.5975 69.1785 69.1785 66.5975 69.1785 63.4138V28.8261C69.1785 25.6424 66.5975 23.0615 63.4138 23.0615H28.8261ZM126.818 28.8261C126.818 25.6424 129.399 23.0615 132.582 23.0615H167.17C170.354 23.0615 172.935 25.6424 172.935 28.8261V63.4138C172.935 66.5975 170.354 69.1785 167.17 69.1785H132.582C129.399 69.1785 126.818 66.5975 126.818 63.4138V28.8261ZM28.8261 126.818C25.6424 126.818 23.0615 129.399 23.0615 132.582V167.17C23.0615 170.354 25.6424 172.935 28.8261 172.935H63.4138C66.5975 172.935 69.1785 170.354 69.1785 167.17V132.582C69.1785 129.399 66.5975 126.818 63.4138 126.818H28.8261ZM103.766 109.531C103.766 106.347 106.347 103.766 109.531 103.766H144.119C147.303 103.766 149.883 106.347 149.883 109.531V144.119C149.883 147.303 147.303 149.883 144.119 149.883H109.531C106.347 149.883 103.766 147.303 103.766 144.119V109.531ZM155.644 149.879C152.46 149.879 149.879 152.46 149.879 155.644V190.231C149.879 193.415 152.46 195.996 155.644 195.996H190.231C193.415 195.996 195.996 193.415 195.996 190.231V155.644C195.996 152.46 193.415 149.879 190.231 149.879H155.644Z" fill="url(#paint0_linear)"/>
<defs>
<linearGradient id="paint0_linear" x1="60.1891" y1="-1.70875e-06" x2="154.146" y2="177.385" gradientUnits="userSpaceOnUse">
<stop stop-color="#DC87B5"/>
<stop offset="1" stop-color="#9B50C9"/>
</linearGradient>
</defs>
</svg>
