<svg width="34" height="34" viewBox="0 0 34 34" fill="none" xmlns="http://www.w3.org/2000/svg">
<path fill-rule="evenodd" clip-rule="evenodd" d="M3 2H13C13.5523 2 14 2.44772 14 3V13C14 13.5523 13.5523 14 13 14H3C2.44772 14 2 13.5523 2 13V3C2 2.44772 2.44772 2 3 2ZM0 3C0 1.34315 1.34315 0 3 0H13C14.6569 0 16 1.34315 16 3V13C16 14.6569 14.6569 16 13 16H3C1.34315 16 0 14.6569 0 13V3ZM20.9998 2H30.9998C31.5521 2 31.9998 2.44772 31.9998 3V13C31.9998 13.5523 31.5521 14 30.9998 14H20.9998C20.4475 14 19.9998 13.5523 19.9998 13V3C19.9998 2.44772 20.4475 2 20.9998 2ZM17.9998 3C17.9998 1.34315 19.3429 0 20.9998 0H30.9998C32.6566 0 33.9998 1.34315 33.9998 3V13C33.9998 14.6569 32.6566 16 30.9998 16H20.9998C19.3429 16 17.9998 14.6569 17.9998 13V3ZM13 19.9998H3C2.44772 19.9998 2 20.4475 2 20.9998V30.9998C2 31.5521 2.44772 31.9998 3 31.9998H13C13.5523 31.9998 14 31.5521 14 30.9998V20.9998C14 20.4475 13.5523 19.9998 13 19.9998ZM3 17.9998C1.34315 17.9998 0 19.3429 0 20.9998V30.9998C0 32.6566 1.34315 33.9998 3 33.9998H13C14.6569 33.9998 16 32.6566 16 30.9998V20.9998C16 19.3429 14.6569 17.9998 13 17.9998H3ZM5.00005 3.99913C4.44777 3.99913 4.00005 4.44685 4.00005 4.99913V10.9991C4.00005 11.5514 4.44777 11.9991 5.00005 11.9991H11.0001C11.5523 11.9991 12.0001 11.5514 12.0001 10.9991V4.99913C12.0001 4.44685 11.5523 3.99913 11.0001 3.99913H5.00005ZM21.9998 4.99913C21.9998 4.44685 22.4476 3.99913 22.9998 3.99913H28.9998C29.5521 3.99913 29.9998 4.44685 29.9998 4.99913V10.9991C29.9998 11.5514 29.5521 11.9991 28.9998 11.9991H22.9998C22.4476 11.9991 21.9998 11.5514 21.9998 10.9991V4.99913ZM5 22C4.44772 22 4 22.4477 4 23V29C4 29.5523 4.44772 30 5 30H11C11.5523 30 12 29.5523 12 29V23C12 22.4477 11.5523 22 11 22H5ZM17.9998 18.9998C17.9998 18.4475 18.4475 17.9998 18.9998 17.9998H24.9998C25.5521 17.9998 25.9998 18.4475 25.9998 18.9998V24.9998C25.9998 25.5521 25.5521 25.9998 24.9998 25.9998H18.9998C18.4475 25.9998 17.9998 25.5521 17.9998 24.9998V18.9998ZM27 26C26.4477 26 26 26.4477 26 27V33C26 33.5523 26.4477 34 27 34H33C33.5523 34 34 33.5523 34 33V27C34 26.4477 33.5523 26 33 26H27Z" fill="url(#paint0_linear)"/>
<defs>
<linearGradient id="paint0_linear" x1="10.4409" y1="-2.96416e-07" x2="26.7396" y2="30.7708" gradientUnits="userSpaceOnUse">
<stop stop-color="#F37C7C"/>
<stop offset="1" stop-color="#CC6C83"/>
</linearGradient>
</defs>
</svg>
