<svg width="113" height="112" viewBox="0 0 113 112" fill="none" xmlns="http://www.w3.org/2000/svg">
<g filter="url(#filter0_d)">
<circle cx="56.5" cy="50" r="48" fill="url(#paint0_linear)"/>
</g>
<path fill-rule="evenodd" clip-rule="evenodd" d="M40.4011 22L40.4841 22H40.9001C42.0047 22 42.9001 22.8954 42.9001 24C42.9001 25.1046 42.0047 26 40.9001 26H40.4841C38.7037 26 37.4887 26.0016 36.5485 26.0784C35.6317 26.1533 35.1536 26.2897 34.8151 26.4621L33.9071 24.6801L34.8151 26.4621C34.0173 26.8687 33.3687 27.5173 32.9621 28.3151C32.7897 28.6536 32.6533 29.1317 32.5784 30.0485C32.5016 30.9887 32.5 32.2037 32.5 33.9841V34.4001C32.5 35.5047 31.6046 36.4001 30.5 36.4001C29.3954 36.4001 28.5 35.5047 28.5 34.4001V33.9841L28.5 33.9011C28.5 32.2243 28.5 30.8452 28.5917 29.7228C28.6868 28.5586 28.8905 27.4955 29.3981 26.4992C30.1881 24.9487 31.4487 23.6881 32.9992 22.8981C33.9955 22.3905 35.0586 22.1868 36.2228 22.0917C37.3452 22 38.7243 22 40.4011 22ZM76.4521 26.0784C75.5119 26.0016 74.2969 26 72.5165 26H72.1005C70.9959 26 70.1005 25.1046 70.1005 24C70.1005 22.8954 70.9959 22 72.1005 22H72.5165L72.5995 22C74.2763 22 75.6554 22 76.7778 22.0917C77.9421 22.1868 79.0051 22.3905 80.0014 22.8981L79.0935 24.6801L80.0015 22.8981C81.5519 23.6881 82.8125 24.9487 83.6025 26.4992C84.1102 27.4955 84.3138 28.5586 84.409 29.7228C84.5007 30.8452 84.5006 32.2242 84.5006 33.901V33.9841V34.4001C84.5006 35.5047 83.6052 36.4001 82.5006 36.4001C81.396 36.4001 80.5006 35.5047 80.5006 34.4001V33.9841C80.5006 32.2037 80.4991 30.9887 80.4222 30.0485C80.3473 29.1317 80.2109 28.6536 80.0385 28.3151C79.632 27.5173 78.9833 26.8687 78.1855 26.4621C77.847 26.2897 77.369 26.1533 76.4521 26.0784ZM30.5 63.6005C31.6046 63.6005 32.5 64.4959 32.5 65.6005V66.0165C32.5 67.7969 32.5016 69.0119 32.5784 69.9521C32.6533 70.869 32.7897 71.347 32.9621 71.6855C33.3687 72.4833 34.0173 73.132 34.8151 73.5385C35.1536 73.7109 35.6316 73.8473 36.5485 73.9222C37.4887 73.9991 38.7037 74.0006 40.4841 74.0006H40.9001C42.0047 74.0006 42.9001 74.896 42.9001 76.0006C42.9001 77.1052 42.0047 78.0006 40.9001 78.0006H40.4841H40.4841H40.4012C38.7243 78.0006 37.3452 78.0007 36.2228 77.909C35.0586 77.8138 33.9955 77.6102 32.9992 77.1025C31.4487 76.3125 30.1881 75.0519 29.3981 73.5014C28.8905 72.5051 28.6868 71.4421 28.5917 70.2778C28.5 69.1554 28.5 67.7763 28.5 66.0995L28.5 66.0165V65.6005C28.5 64.4959 29.3954 63.6005 30.5 63.6005ZM82.5006 63.6005C83.6052 63.6005 84.5006 64.4959 84.5006 65.6005V66.0165V66.0996C84.5006 67.7764 84.5007 69.1554 84.409 70.2778C84.3138 71.4421 84.1102 72.5051 83.6025 73.5015C82.8125 75.0519 81.5519 76.3125 80.0014 77.1025C79.0051 77.6102 77.9421 77.8138 76.7778 77.909C75.6555 78.0007 74.2765 78.0006 72.5998 78.0006H72.5165H72.1005C70.9959 78.0006 70.1005 77.1052 70.1005 76.0006C70.1005 74.896 70.9959 74.0006 72.1005 74.0006H72.5165C74.2969 74.0006 75.5119 73.9991 76.4521 73.9222C77.369 73.8473 77.847 73.7109 78.1855 73.5385C78.9833 73.132 79.632 72.4833 80.0385 71.6855C80.2109 71.347 80.3473 70.869 80.4222 69.9521C80.4991 69.0119 80.5006 67.7969 80.5006 66.0165V65.6005C80.5006 64.4959 81.396 63.6005 82.5006 63.6005Z" fill="white"/>
<mask id="path-3-inside-1" fill="white">
<path fill-rule="evenodd" clip-rule="evenodd" d="M56.5 72C68.6503 72 78.5 62.1503 78.5 50C78.5 37.8497 68.6503 28 56.5 28C44.3497 28 34.5 37.8497 34.5 50C34.5 62.1503 44.3497 72 56.5 72ZM46.2358 56.0064C45.687 55.0478 44.4651 54.7155 43.5064 55.2642C42.5478 55.813 42.2155 57.0349 42.7642 57.9936C45.4976 62.7687 50.6191 66 56.5 66C62.3809 66 67.5024 62.7687 70.2358 57.9936C70.7845 57.0349 70.4522 55.813 69.4936 55.2642C68.5349 54.7155 67.313 55.0478 66.7642 56.0064C64.707 59.6005 60.8745 62 56.5 62C52.1255 62 48.293 59.6005 46.2358 56.0064ZM51.5 42.5C51.5 44.433 49.933 46 48 46C46.067 46 44.5 44.433 44.5 42.5C44.5 40.567 46.067 39 48 39C49.933 39 51.5 40.567 51.5 42.5ZM65 46C66.933 46 68.5 44.433 68.5 42.5C68.5 40.567 66.933 39 65 39C63.067 39 61.5 40.567 61.5 42.5C61.5 44.433 63.067 46 65 46Z"/>
</mask>
<path fill-rule="evenodd" clip-rule="evenodd" d="M56.5 72C68.6503 72 78.5 62.1503 78.5 50C78.5 37.8497 68.6503 28 56.5 28C44.3497 28 34.5 37.8497 34.5 50C34.5 62.1503 44.3497 72 56.5 72ZM46.2358 56.0064C45.687 55.0478 44.4651 54.7155 43.5064 55.2642C42.5478 55.813 42.2155 57.0349 42.7642 57.9936C45.4976 62.7687 50.6191 66 56.5 66C62.3809 66 67.5024 62.7687 70.2358 57.9936C70.7845 57.0349 70.4522 55.813 69.4936 55.2642C68.5349 54.7155 67.313 55.0478 66.7642 56.0064C64.707 59.6005 60.8745 62 56.5 62C52.1255 62 48.293 59.6005 46.2358 56.0064ZM51.5 42.5C51.5 44.433 49.933 46 48 46C46.067 46 44.5 44.433 44.5 42.5C44.5 40.567 46.067 39 48 39C49.933 39 51.5 40.567 51.5 42.5ZM65 46C66.933 46 68.5 44.433 68.5 42.5C68.5 40.567 66.933 39 65 39C63.067 39 61.5 40.567 61.5 42.5C61.5 44.433 63.067 46 65 46Z" fill="white"/>
<path d="M43.5064 55.2642L45.4936 58.7358L45.4936 58.7358L43.5064 55.2642ZM46.2358 56.0064L49.7073 54.0193L46.2358 56.0064ZM42.7642 57.9936L39.2927 59.9807L39.2927 59.9807L42.7642 57.9936ZM70.2358 57.9936L73.7073 59.9807L73.7073 59.9807L70.2358 57.9936ZM69.4936 55.2642L71.4807 51.7927L71.4807 51.7927L69.4936 55.2642ZM66.7642 56.0064L63.2927 54.0193L63.2927 54.0193L66.7642 56.0064ZM74.5 50C74.5 59.9411 66.4411 68 56.5 68V76C70.8594 76 82.5 64.3594 82.5 50H74.5ZM56.5 32C66.4411 32 74.5 40.0589 74.5 50H82.5C82.5 35.6406 70.8594 24 56.5 24V32ZM38.5 50C38.5 40.0589 46.5589 32 56.5 32V24C42.1406 24 30.5 35.6406 30.5 50H38.5ZM56.5 68C46.5589 68 38.5 59.9411 38.5 50H30.5C30.5 64.3594 42.1406 76 56.5 76V68ZM45.4936 58.7358C44.5349 59.2845 43.313 58.9522 42.7642 57.9936L49.7073 54.0193C48.0611 51.1434 44.3952 50.1466 41.5193 51.7927L45.4936 58.7358ZM46.2358 56.0064C46.7845 56.9651 46.4522 58.187 45.4936 58.7358L41.5193 51.7927C38.6434 53.4389 37.6466 57.1048 39.2927 59.9807L46.2358 56.0064ZM56.5 62C52.1265 62 48.2936 59.6014 46.2358 56.0064L39.2927 59.9807C42.7016 65.936 49.1117 70 56.5 70V62ZM66.7643 56.0064C64.7064 59.6014 60.8735 62 56.5 62V70C63.8883 70 70.2984 65.936 73.7073 59.9807L66.7643 56.0064ZM67.5064 58.7358C66.5478 58.187 66.2155 56.9651 66.7642 56.0064L73.7073 59.9807C75.3534 57.1048 74.3566 53.4389 71.4807 51.7927L67.5064 58.7358ZM70.2357 57.9936C69.687 58.9522 68.4651 59.2845 67.5065 58.7358L71.4807 51.7927C68.6048 50.1466 64.9389 51.1434 63.2927 54.0193L70.2357 57.9936ZM56.5 66C62.3795 66 67.5017 62.77 70.2358 57.9936L63.2927 54.0193C61.9123 56.431 59.3695 58 56.5 58V66ZM42.7642 57.9936C45.4983 62.77 50.6205 66 56.5 66V58C53.6305 58 51.0877 56.431 49.7073 54.0193L42.7642 57.9936ZM48 50C52.1421 50 55.5 46.6421 55.5 42.5H47.5C47.5 42.2239 47.7239 42 48 42V50ZM40.5 42.5C40.5 46.6421 43.8579 50 48 50V42C48.2761 42 48.5 42.2239 48.5 42.5H40.5ZM48 35C43.8579 35 40.5 38.3579 40.5 42.5H48.5C48.5 42.7761 48.2761 43 48 43V35ZM55.5 42.5C55.5 38.3579 52.1421 35 48 35V43C47.7239 43 47.5 42.7761 47.5 42.5H55.5ZM64.5 42.5C64.5 42.2239 64.7239 42 65 42V50C69.1421 50 72.5 46.6421 72.5 42.5H64.5ZM65 43C64.7239 43 64.5 42.7761 64.5 42.5H72.5C72.5 38.3579 69.1421 35 65 35V43ZM65.5 42.5C65.5 42.7761 65.2761 43 65 43V35C60.8579 35 57.5 38.3579 57.5 42.5H65.5ZM65 42C65.2761 42 65.5 42.2239 65.5 42.5H57.5C57.5 46.6421 60.8579 50 65 50V42Z" fill="white" mask="url(#path-3-inside-1)"/>
<defs>
<filter id="filter0_d" x="0.5" y="0" width="112" height="112" filterUnits="userSpaceOnUse" color-interpolation-filters="sRGB">
<feFlood flood-opacity="0" result="BackgroundImageFix"/>
<feColorMatrix in="SourceAlpha" type="matrix" values="0 0 0 0 0 0 0 0 0 0 0 0 0 0 0 0 0 0 127 0" result="hardAlpha"/>
<feOffset dy="6"/>
<feGaussianBlur stdDeviation="4"/>
<feColorMatrix type="matrix" values="0 0 0 0 0.67451 0 0 0 0 0.372549 0 0 0 0 0.768627 0 0 0 0.3 0"/>
<feBlend mode="normal" in2="BackgroundImageFix" result="effect1_dropShadow"/>
<feBlend mode="normal" in="SourceGraphic" in2="effect1_dropShadow" result="shape"/>
</filter>
<linearGradient id="paint0_linear" x1="37.9803" y1="2" x2="84" y2="88.8824" gradientUnits="userSpaceOnUse">
<stop stop-color="#DC87B5"/>
<stop offset="1" stop-color="#9B50C9"/>
</linearGradient>
</defs>
</svg>
