<svg width="113" height="112" viewBox="0 0 113 112" fill="none" xmlns="http://www.w3.org/2000/svg">
<g filter="url(#filter0_d)">
<circle cx="56.5" cy="50" r="48" fill="url(#paint0_linear)"/>
</g>
<path fill-rule="evenodd" clip-rule="evenodd" d="M67.6429 31.5865C65.9587 29.4813 65.1167 28.4287 63.9447 27.8651L63.942 27.8638C62.7698 27.3008 61.4218 27.3008 58.7259 27.3008H54.2741C51.5782 27.3008 50.2302 27.3008 49.058 27.8638L49.0553 27.8651C47.8833 28.4288 47.0413 29.4813 45.3571 31.5865C38.4109 31.5865 34.9377 31.5865 32.3345 33.0467C30.5018 34.0747 28.9882 35.5883 27.9602 37.421C26.5 40.0242 26.5 43.4974 26.5 50.4436V52.1579C26.5 60.7346 26.5 65.0229 28.6865 68.0277C29.3884 68.9923 30.2371 69.8409 31.2017 70.5428C34.2065 72.7294 38.4948 72.7294 47.0714 72.7294H65.9286C74.5052 72.7294 78.7935 72.7294 81.7983 70.5428C82.7629 69.8409 83.6116 68.9923 84.3135 68.0277C86.5 65.0229 86.5 60.7346 86.5 52.1579V50.4436C86.5 43.4974 86.5 40.0242 85.0398 37.421C84.0118 35.5883 82.4982 34.0747 80.6655 33.0467C78.0623 31.5865 74.5891 31.5865 67.6429 31.5865ZM84.3135 68.0277L81.0792 65.6741C80.6231 66.3009 80.0716 66.8524 79.4448 67.3085L81.7983 70.5428L79.4448 67.3085C78.7384 67.8225 77.7005 68.243 75.5216 68.4794C73.2676 68.7239 70.3061 68.7294 65.9286 68.7294H47.0714C42.6939 68.7294 39.7324 68.7239 37.4784 68.4794C35.2995 68.243 34.2616 67.8225 33.5552 67.3085L31.2017 70.5428L33.5552 67.3085C32.9284 66.8524 32.3769 66.3009 31.9208 65.6741C31.4068 64.9678 30.9863 63.9299 30.75 61.7509C30.5055 59.4969 30.5 56.5355 30.5 52.1579V50.4436C30.5 46.8987 30.5037 44.5011 30.6669 42.6564C30.8256 40.8646 31.1105 39.9811 31.4489 39.3778C32.1169 38.1869 33.1004 37.2034 34.2913 36.5354L32.3345 33.0467L34.2913 36.5354C34.8946 36.197 35.7781 35.9121 37.5699 35.7534C39.4146 35.5901 41.8122 35.5865 45.3571 35.5865H47.2796L48.4806 34.0853C49.3644 32.9806 49.8745 32.3484 50.2968 31.9043C50.6604 31.522 50.7836 31.4721 50.7888 31.4699L50.789 31.4699L50.7898 31.4695L50.7899 31.4694L50.7915 31.4687L50.7914 31.4686C50.8069 31.4605 50.9359 31.3995 51.4365 31.3565C52.0471 31.3042 52.8594 31.3008 54.2741 31.3008H58.7259C60.1406 31.3008 60.9529 31.3042 61.5635 31.3565C62.0744 31.4004 62.1982 31.463 62.2094 31.469L62.2093 31.4691L62.21 31.4694L62.2102 31.4695L62.211 31.4699L62.2112 31.4699L62.212 31.4703L62.212 31.4703C62.2242 31.4754 62.3507 31.5336 62.7032 31.9043C63.1255 32.3484 63.6356 32.9806 64.5194 34.0853L65.7204 35.5865H67.6429C71.1878 35.5865 73.5854 35.5901 75.4301 35.7534C77.2219 35.9121 78.1054 36.197 78.7087 36.5354C79.8996 37.2034 80.8831 38.1869 81.5511 39.3778C81.8895 39.9811 82.1744 40.8646 82.3331 42.6564C82.4963 44.5011 82.5 46.8987 82.5 50.4436V52.1579C82.5 56.5355 82.4945 59.4969 82.25 61.7509C82.0137 63.9299 81.5932 64.9678 81.0792 65.6741L84.3135 68.0277ZM56.5005 61.3759C61.9383 61.3759 66.3466 56.9676 66.3466 51.5297C66.3466 46.0919 61.9383 41.6836 56.5005 41.6836C51.0626 41.6836 46.6543 46.0919 46.6543 51.5297C46.6543 56.9676 51.0626 61.3759 56.5005 61.3759ZM56.5005 65.3759C64.1475 65.3759 70.3466 59.1768 70.3466 51.5297C70.3466 43.8827 64.1475 37.6836 56.5005 37.6836C48.8534 37.6836 42.6543 43.8827 42.6543 51.5297C42.6543 59.1768 48.8534 65.3759 56.5005 65.3759ZM75.5 45.3008C77.1569 45.3008 78.5 43.9576 78.5 42.3008C78.5 40.6439 77.1569 39.3008 75.5 39.3008C73.8431 39.3008 72.5 40.6439 72.5 42.3008C72.5 43.9576 73.8431 45.3008 75.5 45.3008Z" fill="white"/>
<defs>
<filter id="filter0_d" x="0.5" y="0" width="112" height="112" filterUnits="userSpaceOnUse" color-interpolation-filters="sRGB">
<feFlood flood-opacity="0" result="BackgroundImageFix"/>
<feColorMatrix in="SourceAlpha" type="matrix" values="0 0 0 0 0 0 0 0 0 0 0 0 0 0 0 0 0 0 127 0" result="hardAlpha"/>
<feOffset dy="6"/>
<feGaussianBlur stdDeviation="4"/>
<feColorMatrix type="matrix" values="0 0 0 0 0.67451 0 0 0 0 0.372549 0 0 0 0 0.768627 0 0 0 0.3 0"/>
<feBlend mode="normal" in2="BackgroundImageFix" result="effect1_dropShadow"/>
<feBlend mode="normal" in="SourceGraphic" in2="effect1_dropShadow" result="shape"/>
</filter>
<linearGradient id="paint0_linear" x1="37.9803" y1="2" x2="84" y2="88.8824" gradientUnits="userSpaceOnUse">
<stop stop-color="#DC87B5"/>
<stop offset="1" stop-color="#9B50C9"/>
</linearGradient>
</defs>
</svg>
