<svg width="44" height="44" viewBox="0 0 44 44" fill="none" xmlns="http://www.w3.org/2000/svg">
<path fill-rule="evenodd" clip-rule="evenodd" d="M28.3637 29.7782C28.7542 30.1687 29.3874 30.1687 29.7779 29.7782C30.1684 29.3876 30.1684 28.7545 29.7779 28.364L23.4139 22L29.7779 15.636C30.1684 15.2455 30.1684 14.6124 29.7779 14.2218C29.3874 13.8313 28.7542 13.8313 28.3637 14.2218L21.9997 20.5858L15.6357 14.2218C15.2452 13.8313 14.6121 13.8313 14.2215 14.2218C13.831 14.6124 13.831 15.2455 14.2215 15.636L20.5855 22L14.2215 28.364C13.831 28.7545 13.831 29.3876 14.2215 29.7782C14.6121 30.1687 15.2452 30.1687 15.6357 29.7782L21.9997 23.4142L28.3637 29.7782Z" fill="black" fill-opacity="0.3"/>
</svg>
