<svg width="44" height="44" viewBox="0 0 44 44" fill="none" xmlns="http://www.w3.org/2000/svg">
<path fill-rule="evenodd" clip-rule="evenodd" d="M11 16C11 13.2386 13.2386 11 16 11H24C24.5523 11 25 10.5523 25 10C25 9.44772 24.5523 9 24 9H16C12.134 9 9 12.134 9 16V28C9 31.866 12.134 35 16 35H28C31.866 35 35 31.866 35 28V20C35 19.4477 34.5523 19 34 19C33.4477 19 33 19.4477 33 20V28C33 30.7614 30.7614 33 28 33H16C13.2386 33 11 30.7614 11 28V16ZM32.4409 9.68122C31.6599 8.90017 30.3936 8.90016 29.6125 9.68121L17.2875 22.0062C17.127 22.1668 16.9949 22.3535 16.897 22.5585L15.1836 26.146C14.371 27.8475 16.1488 29.6253 17.8503 28.8126L21.4378 27.0993C21.6428 27.0014 21.8295 26.8693 21.9901 26.7088L34.3151 14.3838C35.0961 13.6027 35.0961 12.3364 34.3151 11.5554L32.4409 9.68122ZM31.0267 11.0954L32.9009 12.9696L31.6416 14.2289L29.7674 12.3547L31.0267 11.0954ZM28.3532 13.7689L30.2274 15.6431L21.6416 24.2289L19.7674 22.3547L28.3532 13.7689ZM18.4765 23.8921L16.9884 27.0079L20.1041 25.5198L18.4765 23.8921Z" fill="url(#paint0_linear)"/>
<defs>
<linearGradient id="paint0_linear" x1="17.7853" y1="33.2961" x2="17.1284" y2="9.11246" gradientUnits="userSpaceOnUse">
<stop stop-color="#6297E2"/>
<stop offset="1" stop-color="#5EC5DC"/>
</linearGradient>
</defs>
</svg>
