<svg width="44" height="44" viewBox="0 0 44 44" fill="none" xmlns="http://www.w3.org/2000/svg">
<path fill-rule="evenodd" clip-rule="evenodd" d="M28 19.5C28 24.1944 24.1944 28 19.5 28C14.8056 28 11 24.1944 11 19.5C11 14.8056 14.8056 11 19.5 11C24.1944 11 28 14.8056 28 19.5ZM26.8114 29.6398C24.7555 31.1249 22.2299 32 19.5 32C12.5964 32 7 26.4036 7 19.5C7 12.5964 12.5964 7 19.5 7C26.4036 7 32 12.5964 32 19.5C32 22.2299 31.1249 24.7555 29.6398 26.8114L37.9142 35.0858C38.6953 35.8668 38.6953 37.1332 37.9142 37.9142C37.1332 38.6953 35.8668 38.6953 35.0858 37.9142L26.8114 29.6398Z" fill="black"/>
</svg>
