<svg width="140" height="140" viewBox="0 0 140 140" fill="none" xmlns="http://www.w3.org/2000/svg">
<path d="M70 120C97.6142 120 120 97.6142 120 70C120 42.3858 97.6142 20 70 20C42.3858 20 20 42.3858 20 70C20 97.6142 42.3858 120 70 120Z" fill="#85DE99"/>
<circle cx="70" cy="70" r="30" stroke="white" stroke-width="4"/>
<path d="M81 70C81 78.644 79.5729 86.3769 77.3395 91.8747C76.2206 94.6287 74.9388 96.7245 73.6178 98.0999C72.3019 99.4698 71.0795 100 70 100C68.9205 100 67.6981 99.4698 66.3822 98.0999C65.0612 96.7245 63.7794 94.6287 62.6605 91.8747C60.4271 86.3769 59 78.644 59 70C59 61.356 60.4271 53.6231 62.6605 48.1253C63.7794 45.3713 65.0612 43.2755 66.3822 41.9001C67.6981 40.5302 68.9205 40 70 40C71.0795 40 72.3019 40.5302 73.6178 41.9001C74.9388 43.2755 76.2206 45.3713 77.3395 48.1253C79.5729 53.6231 81 61.356 81 70Z" stroke="white" stroke-width="4"/>
<path d="M39 70H101" stroke="white" stroke-width="4"/>
<path d="M43 55C43 55 56.5 58 70 58C83.5 58 97 55 97 55" stroke="white" stroke-width="4"/>
<path d="M97 85C97 85 83.5 82 70 82C56.5 82 43 85 43 85" stroke="white" stroke-width="4"/>
</svg>
