<svg width="140" height="140" viewBox="0 0 140 140" fill="none" xmlns="http://www.w3.org/2000/svg">
<path d="M70 120C97.6142 120 120 97.6142 120 70C120 42.3858 97.6142 20 70 20C42.3858 20 20 42.3858 20 70C20 97.6142 42.3858 120 70 120Z" fill="url(#paint0_linear)"/>
<path fill-rule="evenodd" clip-rule="evenodd" d="M42.6313 69.4722C57.2073 63.1216 66.9269 58.935 71.7902 56.9122C85.6757 51.1367 88.561 50.1335 90.4416 50.1003C90.8552 50.093 91.78 50.1955 92.3791 50.6816C92.8849 51.0921 93.0241 51.6466 93.0907 52.0357C93.1573 52.4249 93.2402 53.3114 93.1743 54.004C92.4218 61.9102 89.1659 81.0964 87.5095 89.9515C86.8086 93.6984 85.4286 94.9547 84.0925 95.0776C81.1889 95.3448 78.984 93.1588 76.1718 91.3153C71.7711 88.4306 69.285 86.6349 65.0134 83.82C60.0769 80.5668 63.277 78.7789 66.0904 75.8568C66.8266 75.0921 79.6199 63.4556 79.8676 62.4C79.8985 62.268 79.9273 61.7759 79.6349 61.516C79.3426 61.2562 78.9111 61.345 78.5997 61.4157C78.1583 61.5159 71.1282 66.1625 57.5094 75.3556C55.5139 76.7258 53.7065 77.3934 52.0871 77.3585C50.3018 77.3199 46.8677 76.349 44.3148 75.5192C41.1835 74.5014 38.6949 73.9632 38.9116 72.2346C39.0245 71.3342 40.2644 70.4134 42.6313 69.4722Z" fill="white"/>
<defs>
<linearGradient id="paint0_linear" x1="70" y1="20" x2="70" y2="119.258" gradientUnits="userSpaceOnUse">
<stop stop-color="#2AABEE"/>
<stop offset="1" stop-color="#229ED9"/>
</linearGradient>
</defs>
</svg>
