<svg width="140" height="140" viewBox="0 0 140 140" fill="none" xmlns="http://www.w3.org/2000/svg">
<path d="M70 120C97.6142 120 120 97.6142 120 70C120 42.3858 97.6142 20 70 20C42.3858 20 20 42.3858 20 70C20 97.6142 42.3858 120 70 120Z" fill="#EF967A"/>
<path d="M47.3837 61.0869C46.4911 61.9796 46.4911 63.4268 47.3837 64.3194C48.2764 65.2121 49.7236 65.2121 50.6163 64.3194L47.3837 61.0869ZM89.4065 64.3194C90.2991 65.2121 91.7463 65.2121 92.639 64.3194C93.5316 63.4268 93.5316 61.9796 92.639 61.0869L89.4065 64.3194ZM53.8486 67.5513C52.956 68.4439 52.956 69.8912 53.8486 70.7838C54.7413 71.6764 56.1885 71.6764 57.0812 70.7838L53.8486 67.5513ZM82.9413 70.7838C83.8339 71.6764 85.2812 71.6764 86.1738 70.7838C87.0664 69.8912 87.0664 68.4439 86.1738 67.5513L82.9413 70.7838ZM60.3138 74.0156C59.4212 74.9083 59.4212 76.3555 60.3138 77.2481C61.2065 78.1408 62.6537 78.1408 63.5463 77.2481L60.3138 74.0156ZM76.4764 77.2481C77.369 78.1408 78.8163 78.1408 79.7089 77.2481C80.6016 76.3555 80.6016 74.9083 79.7089 74.0156L76.4764 77.2481ZM50.6163 64.3194C61.3279 53.6078 78.6948 53.6078 89.4065 64.3194L92.639 61.0869C80.1421 48.59 59.8806 48.59 47.3837 61.0869L50.6163 64.3194ZM57.0812 70.7838C64.2222 63.6427 75.8002 63.6427 82.9413 70.7838L86.1738 67.5513C77.2475 58.6249 62.775 58.6249 53.8486 67.5513L57.0812 70.7838ZM63.5463 77.2481C67.1169 73.6776 72.9059 73.6776 76.4764 77.2481L79.7089 74.0156C74.3531 68.6598 65.6696 68.6598 60.3138 74.0156L63.5463 77.2481ZM70.0114 83.7123L73.2439 86.9448C75.0292 85.1596 75.0292 82.2651 73.2439 80.4798L70.0114 83.7123ZM70.0114 83.7123H70.0114L66.7789 86.9448C68.5642 88.7301 71.4587 88.7301 73.2439 86.9448L70.0114 83.7123ZM70.0114 83.7123L66.7789 80.4798C64.9936 82.2651 64.9936 85.1596 66.7789 86.9448L70.0114 83.7123ZM70.0114 83.7123H70.0114L73.2439 80.4798C71.4587 78.6945 68.5642 78.6945 66.7789 80.4798L70.0114 83.7123Z" fill="white"/>
</svg>
